<svg viewBox="0 0 96 96" height="96" width="96" xmlns="http://www.w3.org/2000/svg">
  <g transform="translate(-570 -6858)" data-name="Group 15609" id="Group_15609">
    <circle fill="#36bff0" transform="translate(570 6858)" r="48" cy="48" cx="48" data-name="Ellipse 430" id="Ellipse_430"></circle>
    <path stroke-width="2" stroke="#fff" fill="#36bff0" transform="translate(590.911 6973.559)" d="M51.189-87.129v2.051a21.155,21.155,0,0,0-6.914,6.123,15.427,15.427,0,0,0-2.812,6.826,9.9,9.9,0,0,1,6.445,3.457,9.4,9.4,0,0,1,2.285,6.035,9.765,9.765,0,0,1-2.959,7.061,9.884,9.884,0,0,1-7.354,3.018A9.318,9.318,0,0,1,32-56.221a13.264,13.264,0,0,1-2.783-8.232A20.417,20.417,0,0,1,31.443-73.3a23.759,23.759,0,0,1,7.119-8.408A30.853,30.853,0,0,1,51.189-87.129Zm-26.228,0v2.051a21.155,21.155,0,0,0-6.914,6.123,15.427,15.427,0,0,0-2.813,6.826,9.9,9.9,0,0,1,6.445,3.457,9.4,9.4,0,0,1,2.285,6.035,9.765,9.765,0,0,1-2.959,7.061,9.884,9.884,0,0,1-7.354,3.018,9.318,9.318,0,0,1-7.881-3.662,13.264,13.264,0,0,1-2.783-8.232A20.417,20.417,0,0,1,5.215-73.3a23.759,23.759,0,0,1,7.119-8.408A30.853,30.853,0,0,1,24.961-87.129Z" data-name="Path 32518" id="Path_32518"></path>
  </g>
</svg>
