<svg width="50" height="49" viewBox="0 0 50 49" fill="none" xmlns="http://www.w3.org/2000/svg">
<ellipse cx="25" cy="24.4481" rx="25" ry="24.4481" fill="#EDEDED"/>
<path d="M17.3077 34.2274H23.4615H23.7231C26.7385 34.2274 29.5692 33.084 31.7 31.0002C33.8308 28.9165 35 26.1482 35 23.1994V22.9436V18.4301C35 17.1889 33.9615 16.1734 32.6923 16.1734H29.6154V15.4211C29.6154 15.0074 29.2692 14.6689 28.8462 14.6689C28.4231 14.6689 28.0769 15.0074 28.0769 15.4211V16.1734H21.9231V15.4211C21.9231 15.0074 21.5769 14.6689 21.1538 14.6689C20.7308 14.6689 20.3846 15.0074 20.3846 15.4211V16.1734H17.3077C16.0385 16.1734 15 17.1889 15 18.4301V31.9706C15 33.2118 16.0385 34.2274 17.3077 34.2274ZM16.5385 31.9706V22.1914H33.4615V22.9436C33.4615 24.1848 32.4231 25.2004 31.1538 25.2004H28.0769C26.8077 25.2004 25.7692 26.2159 25.7692 27.4571V30.4661C25.7692 31.7073 24.7308 32.7229 23.4615 32.7229H17.3077C16.8846 32.7229 16.5385 32.3844 16.5385 31.9706ZM30.6077 29.932C29.5308 30.9852 28.2462 31.7525 26.8462 32.2114C27.1308 31.6848 27.3077 31.098 27.3077 30.4661V27.4571C27.3077 27.0434 27.6538 26.7049 28.0769 26.7049H31.1538C31.8 26.7049 32.4077 26.5319 32.9385 26.2535C32.4692 27.6226 31.6846 28.8789 30.6077 29.932ZM17.3077 17.6779H20.3846V18.4301C20.3846 18.8439 20.7308 19.1824 21.1538 19.1824C21.5769 19.1824 21.9231 18.8439 21.9231 18.4301V17.6779H28.0769V18.4301C28.0769 18.8439 28.4231 19.1824 28.8462 19.1824C29.2692 19.1824 29.6154 18.8439 29.6154 18.4301V17.6779H32.6923C33.1154 17.6779 33.4615 18.0164 33.4615 18.4301V20.6869H16.5385V18.4301C16.5385 18.0164 16.8846 17.6779 17.3077 17.6779Z" fill="#0074B5"/>
</svg>
