<svg width="50" height="49" viewBox="0 0 50 49" fill="none" xmlns="http://www.w3.org/2000/svg">
<ellipse cx="25" cy="24.4481" rx="25" ry="24.4481" fill="#EDEDED"/>
<path d="M23.8852 31.5942V29.7057C23.8234 29.7331 23.7562 29.7542 23.692 29.7789C23.65 29.6222 23.6121 29.4644 23.5798 29.3052C19.7326 30.3705 15.7117 27.3826 15.7724 23.4921C15.7723 23.4921 15.7723 17.0074 15.7723 17.0074V16.5442C15.7723 16.0347 16.2018 15.6179 16.7268 15.6179H23.7563C23.5893 15.3399 23.2839 15.1547 22.9307 15.1547C22.5108 15.1547 22.129 14.974 21.8665 14.6915H16.7268C15.6721 14.6915 14.8178 15.5206 14.8178 16.5442H12.5496C11.6953 16.5442 11 17.2191 11 18.0485V21.1762C11 23.4048 12.8125 25.2253 15.0815 25.3344C15.7484 27.6813 17.6508 29.5306 20.0674 30.1815V31.5942C15.7908 32.8115 17.7462 36.0859 21.9763 35.9983C26.2062 36.0859 28.162 32.8115 23.8852 31.5942ZM14.8178 23.4921V24.3855C13.2011 24.1602 11.9545 22.8069 11.9545 21.1762V18.0485C11.9545 17.7298 12.2215 17.4706 12.5496 17.4706H14.8178V23.4921ZM21.9763 35.072C19.1249 35.0565 17.1774 33.5041 20.0947 32.5552C20.4239 34.6547 23.5294 34.6533 23.8579 32.5552C26.7753 33.5042 24.8275 35.0565 21.9763 35.072Z" fill="#0074B5"/>
<path d="M32.9625 19.4031V18.0691C32.9625 17.2399 32.2658 16.5637 31.4116 16.5637H29.1447C29.1447 15.9291 28.8202 15.3733 28.3191 15.0398C28.1378 15.1278 27.9278 15.1741 27.713 15.1741C27.3599 15.1741 27.0544 15.3594 26.8874 15.6373H27.2358C27.7607 15.6373 28.1902 16.0542 28.1902 16.5637V20.209C28.5005 20.0608 28.8202 19.9311 29.1447 19.8199V17.4901H31.4116C31.7408 17.4901 32.0081 17.7495 32.0081 18.0691V19.3475C32.3278 19.3475 32.6476 19.366 32.9625 19.4031Z" fill="#0074B5"/>
<path d="M32.0314 20.2589C22.2145 20.5302 21.7182 34.2021 31.5579 35.0638C35.4851 35.367 39.2144 32.3225 39.5906 28.5108C40.1768 24.2381 36.4708 20.1871 32.0314 20.2589ZM38.6427 28.4055C38.307 31.7398 35.0632 34.4042 31.6138 34.1388C23.0339 33.3451 23.382 21.5006 31.9951 21.1852C35.8752 21.0899 39.169 24.6726 38.6427 28.4055Z" fill="#0074B5"/>
<path d="M20.0689 18.3902C20.0589 17.7828 19.125 17.7803 19.1144 18.3902C19.1144 19.4118 18.2583 20.243 17.2055 20.243C16.5797 20.2528 16.5771 21.1591 17.2056 21.1694C18.2583 21.1694 19.1144 22.0006 19.1144 23.0222C19.1245 23.6296 20.0583 23.6321 20.0689 23.0221C20.0689 22.0006 20.925 21.1694 21.9778 21.1694C22.6037 21.1596 22.6063 20.2533 21.9778 20.243C20.925 20.243 20.0689 19.4118 20.0689 18.3902Z" fill="#0074B5"/>
<path d="M28.1802 13.7725C28.1802 13.5167 27.9667 13.3093 27.7029 13.3093C26.6501 13.3093 25.794 12.4781 25.794 11.4565C25.784 10.8491 24.8501 10.8466 24.8396 11.4565C24.8396 12.4781 23.9834 13.3093 22.9306 13.3093C22.3048 13.3191 22.3022 14.2254 22.9307 14.2357C23.9834 14.2357 24.8396 15.0669 24.8396 16.0885C24.8496 16.6959 25.7834 16.6984 25.794 16.0884C25.794 15.0669 26.6501 14.2357 27.7029 14.2357C27.9667 14.2357 28.1802 14.0283 28.1802 13.7725Z" fill="#0074B5"/>
<path d="M26.0352 27.4358C25.8859 30.5549 28.3811 33.2193 31.5377 33.4434C31.4117 30.5231 29.0046 27.9005 26.0352 27.4358Z" fill="#0074B5"/>
<path d="M26.1529 26.519C29.5878 27.022 32.391 30.0689 32.5001 33.4484C33.6645 33.3557 34.7335 32.9435 35.6164 32.295L27.6992 23.6564C26.9308 24.4346 26.382 25.4212 26.1529 26.519Z" fill="#0074B5"/>
<path d="M33.4334 26.4309C32.2689 25.1617 31.6008 23.5498 31.5149 21.8823C30.3505 21.975 29.2815 22.3918 28.4034 23.0357L36.3206 31.6742C37.089 30.8961 37.6378 29.9095 37.8669 28.8117C36.1631 28.5338 34.593 27.7 33.4334 26.4309Z" fill="#0074B5"/>
<path d="M32.4515 21.8823C32.5699 24.8007 34.9874 27.423 37.954 27.8946C38.1053 24.7696 35.6148 22.1062 32.4515 21.8823Z" fill="#0074B5"/>
</svg>
