<svg width="60" height="59" viewBox="0 0 60 59" fill="none" xmlns="http://www.w3.org/2000/svg">
<path d="M14.3426 14.969L46.6783 16.8971C54.0648 16.712 56.824 20.3821 57.2909 22.7267C58.1002 26.792 55.4691 29.4097 53.7923 30.2839C52.624 30.893 46.4285 30.6136 42.9213 30.6676C37.0382 31.272 37.1434 36.8233 37.6312 38.3178C37.7971 38.8261 40.5838 44.4221 41.5289 47.4603C42.4144 51.7829 38.6191 53.9396 37.7562 54.3283C33.7042 56.1541 29.8221 53.9139 28.7649 52.0822C24.0267 42.6215 14.0723 22.7484 12.1608 18.9408C10.2493 15.1333 12.8189 14.7064 14.3426 14.969Z" stroke="white" stroke-width="1.5"/>
<path d="M14.3426 14.969L46.6783 16.8971C54.0648 16.712 56.824 20.3821 57.2909 22.7267C58.1002 26.792 55.4691 29.4097 53.7923 30.2839C52.624 30.893 46.4285 30.6136 42.9213 30.6676C37.0382 31.272 37.1434 36.8233 37.6312 38.3178C37.7971 38.8261 40.5838 44.4221 41.5289 47.4603C42.4144 51.7829 38.6191 53.9396 37.7562 54.3283C33.7042 56.1541 29.8221 53.9139 28.7649 52.0822C24.0267 42.6215 14.0723 22.7484 12.1608 18.9408C10.2493 15.1333 12.8189 14.7064 14.3426 14.969Z" stroke="white" stroke-width="1.5"/>
</svg>
