<svg width="18" height="22" viewBox="0 0 18 22" fill="none" xmlns="http://www.w3.org/2000/svg">
<path d="M17.2858 20.6033C16.9966 20.6033 16.762 20.3687 16.762 20.0795V1.92065C16.762 1.43909 16.3705 1.04763 15.889 1.04763H1.92065C1.43909 1.04763 1.04763 1.43909 1.04763 1.92065V20.0795C1.04763 20.3687 0.813027 20.6033 0.523813 20.6033C0.234598 20.6033 0 20.3687 0 20.0795V1.92065C0 0.861428 0.861428 0 1.92065 0H15.889C16.9482 0 17.8096 0.861428 17.8096 1.92065V20.0795C17.8096 20.3687 17.575 20.6033 17.2858 20.6033Z" fill="white"/>
<path d="M17.2858 21.9975H1.92065C0.861428 21.9975 0 21.1361 0 20.0769C0 19.0177 0.861428 18.1562 1.92065 18.1562H17.2858C17.575 18.1562 17.8096 18.3908 17.8096 18.6801V21.4737C17.8096 21.7629 17.575 21.9975 17.2858 21.9975ZM1.92065 19.2039C1.43909 19.2039 1.04763 19.5953 1.04763 20.0769C1.04763 20.5585 1.43909 20.9499 1.92065 20.9499H16.762V19.2039H1.92065Z" fill="white"/>
<path d="M3.32069 19.2065C3.03147 19.2065 2.79688 18.9719 2.79688 18.6827V0.523813C2.79688 0.234598 3.03147 0 3.32069 0C3.6099 0 3.8445 0.234598 3.8445 0.523813V18.6827C3.8445 18.9719 3.6099 19.2065 3.32069 19.2065Z" fill="white"/>
<path d="M10.3034 15.0208C7.31874 15.0208 4.89062 12.5927 4.89062 9.60804C4.89062 6.62343 7.31874 4.19531 10.3034 4.19531C13.288 4.19531 15.7161 6.62343 15.7161 9.60804C15.7161 12.5927 13.288 15.0208 10.3034 15.0208ZM10.3034 5.24294C7.8964 5.24294 5.93825 7.20109 5.93825 9.60804C5.93825 12.015 7.8964 13.9732 10.3034 13.9732C12.7103 13.9732 14.6685 12.015 14.6685 9.60804C14.6685 7.20109 12.7103 5.24294 10.3034 5.24294Z" fill="white"/>
<path d="M13.8035 13.5339C13.6678 13.5339 13.5327 13.4813 13.4304 13.3777C12.4325 12.3642 11.8828 11.0205 11.8828 9.59507C11.8828 8.1696 12.4325 6.82599 13.4304 5.81245C13.6329 5.60718 13.9644 5.60306 14.171 5.807C14.377 6.00954 14.3797 6.34171 14.1765 6.54767C13.373 7.36405 12.9304 8.44653 12.9304 9.59507C12.9304 10.7436 13.373 11.826 14.1765 12.6425C14.3797 12.8484 14.377 13.1806 14.171 13.3831C14.0687 13.4841 13.9365 13.5339 13.8035 13.5339Z" fill="white"/>
<path d="M6.80509 13.5339C6.67211 13.5339 6.53976 13.4841 6.43744 13.3831C6.23148 13.1806 6.22875 12.8484 6.43199 12.6425C7.23545 11.8261 7.67811 10.7436 7.67811 9.59507C7.67811 8.44653 7.23545 7.36412 6.43199 6.54767C6.22875 6.34171 6.23148 6.00954 6.43744 5.807C6.6434 5.60306 6.97487 5.60718 7.17811 5.81245C8.17594 6.82599 8.72566 8.1696 8.72566 9.59507C8.72566 11.0205 8.17594 12.3642 7.17811 13.3777C7.07579 13.4813 6.94086 13.5339 6.80509 13.5339Z" fill="white"/>
<path d="M17.289 19.2065H3.32069C3.03147 19.2065 2.79688 18.9719 2.79688 18.6827V0.523813C2.79688 0.234598 3.03147 0 3.32069 0H17.289C17.5782 0 17.8128 0.234598 17.8128 0.523813V18.6827C17.8128 18.9719 17.5782 19.2065 17.289 19.2065ZM3.8445 18.1588H16.7652V1.04763H3.8445V18.1588Z" fill="white"/>
<path d="M10.3051 15.0181C10.0158 15.0181 9.78125 14.7835 9.78125 14.4942V4.71913C9.78125 4.42991 10.0158 4.19531 10.3051 4.19531C10.5943 4.19531 10.8289 4.42991 10.8289 4.71913V14.4942C10.8289 14.7835 10.5943 15.0181 10.3051 15.0181Z" fill="white"/>
<path d="M15.1896 10.1336H5.41444C5.12522 10.1336 4.89062 9.89896 4.89062 9.60975C4.89062 9.32054 5.12522 9.08594 5.41444 9.08594H15.1896C15.4788 9.08594 15.7134 9.32054 15.7134 9.60975C15.7134 9.89896 15.4788 10.1336 15.1896 10.1336Z" fill="white"/>
</svg>
