<svg width="50" height="50" viewBox="0 0 50 50" fill="none" xmlns="http://www.w3.org/2000/svg">
<circle cx="25" cy="25" r="25" fill="#EDEDED"/>
<path d="M17.3077 35H23.4615H23.7231C26.7385 35 29.5692 33.8308 31.7 31.7C33.8308 29.5692 35 26.7385 35 23.7231V23.4615V18.8462C35 17.5769 33.9615 16.5385 32.6923 16.5385H29.6154V15.7692C29.6154 15.3462 29.2692 15 28.8462 15C28.4231 15 28.0769 15.3462 28.0769 15.7692V16.5385H21.9231V15.7692C21.9231 15.3462 21.5769 15 21.1538 15C20.7308 15 20.3846 15.3462 20.3846 15.7692V16.5385H17.3077C16.0385 16.5385 15 17.5769 15 18.8462V32.6923C15 33.9615 16.0385 35 17.3077 35ZM16.5385 32.6923V22.6923H33.4615V23.4615C33.4615 24.7308 32.4231 25.7692 31.1538 25.7692H28.0769C26.8077 25.7692 25.7692 26.8077 25.7692 28.0769V31.1538C25.7692 32.4231 24.7308 33.4615 23.4615 33.4615H17.3077C16.8846 33.4615 16.5385 33.1154 16.5385 32.6923ZM30.6077 30.6077C29.5308 31.6846 28.2462 32.4692 26.8462 32.9385C27.1308 32.4 27.3077 31.8 27.3077 31.1538V28.0769C27.3077 27.6538 27.6538 27.3077 28.0769 27.3077H31.1538C31.8 27.3077 32.4077 27.1308 32.9385 26.8462C32.4692 28.2462 31.6846 29.5308 30.6077 30.6077ZM17.3077 18.0769H20.3846V18.8462C20.3846 19.2692 20.7308 19.6154 21.1538 19.6154C21.5769 19.6154 21.9231 19.2692 21.9231 18.8462V18.0769H28.0769V18.8462C28.0769 19.2692 28.4231 19.6154 28.8462 19.6154C29.2692 19.6154 29.6154 19.2692 29.6154 18.8462V18.0769H32.6923C33.1154 18.0769 33.4615 18.4231 33.4615 18.8462V21.1538H16.5385V18.8462C16.5385 18.4231 16.8846 18.0769 17.3077 18.0769Z" fill="#0074B5"/>
</svg>
