<svg width="50" height="50" viewBox="0 0 50 50" fill="none" xmlns="http://www.w3.org/2000/svg">
<circle cx="25" cy="25" r="25" fill="#EDEDED"/>
<path d="M34.2827 29.7318L31.9707 27.4198C31.5093 26.9573 30.8933 26.7025 30.2364 26.7025C29.5794 26.7025 28.9635 26.9567 28.5015 27.4192L26.9007 29.0195C24.2347 28.1321 21.8668 25.7647 20.98 23.0993L22.5808 21.4985C23.0422 21.0365 23.297 20.42 23.297 19.7631C23.297 19.1061 23.0427 18.4902 22.5808 18.0293L20.2687 15.7173C19.8073 15.2548 19.1914 15 18.5344 15C17.8775 15 17.261 15.2542 16.799 15.7168L14.9756 17.5402C14.1497 18.3667 13.4252 19.9791 14.6643 22.9697C16.922 28.419 25.0279 35.9999 29.9162 35.9999C30.9564 35.9999 31.8117 35.6714 32.4598 35.0239L34.2832 33.2004C34.7458 32.7379 35.0006 32.1208 35 31.4633C34.9989 30.8075 34.7441 30.1921 34.2827 29.7318ZM18.5333 16.1073C18.8939 16.1073 19.2318 16.2463 19.4838 16.4994L21.7964 18.8126C22.049 19.0646 22.188 19.4019 22.188 19.7625C22.188 20.1237 22.049 20.4616 21.7959 20.7147L21.4973 21.0133L17.2821 16.798L17.5806 16.4994C17.8343 16.2469 18.1727 16.1073 18.5333 16.1073ZM29.9156 34.8926C25.8278 34.8926 17.9816 28.0845 15.6868 22.5459C15.1323 21.2071 14.6942 19.3875 15.7577 18.3235L16.4999 17.5812L20.7146 21.7965L19.9597 22.5515C19.8173 22.6938 19.7636 22.9021 19.819 23.096C20.7495 26.3363 23.662 29.2488 26.9029 30.1794C27.0968 30.2364 27.3051 30.1816 27.4474 30.0387L28.2024 29.2837L32.4166 33.4995L31.676 34.2407C31.2373 34.6793 30.6612 34.8926 29.9156 34.8926ZM33.4995 32.4177L33.1998 32.7168L28.9862 28.5016L29.2847 28.203C29.7905 27.6979 30.6823 27.6967 31.1874 28.203L33.5006 30.5162C33.7531 30.7676 33.8922 31.105 33.8922 31.465C33.8916 31.8256 33.7526 32.1646 33.4995 32.4177Z" fill="#0074B5"/>
</svg>
