<svg width="25" height="25" viewBox="0 0 25 25" fill="none" xmlns="http://www.w3.org/2000/svg">
<path d="M1.74255 23.2574L2.16682 22.8332L1.74255 23.2575C1.98384 23.4987 2.28307 23.5002 2.4482 23.4841C2.59647 23.4696 2.77075 23.4259 2.92483 23.3873C2.93463 23.3848 2.94435 23.3824 2.95397 23.38L2.80845 22.7979L2.95397 23.38L8.37733 22.0241C8.39352 22.0201 8.40967 22.0161 8.42578 22.0121C8.64455 21.9577 8.85485 21.9054 9.0463 21.7971C9.23775 21.6887 9.39076 21.5352 9.54993 21.3756C9.56165 21.3638 9.5734 21.3521 9.5852 21.3403L9.58521 21.3402L23.0101 7.9154L23.0369 7.88857C23.3472 7.57829 23.6215 7.30407 23.8128 7.05331C24.0202 6.78149 24.1858 6.46796 24.1858 6.07692C24.1858 5.68588 24.0202 5.37235 23.8128 5.10054C23.6215 4.84977 23.3472 4.57556 23.0369 4.26528L23.0101 4.23845L20.7616 1.98995L20.7347 1.9631C20.4244 1.65278 20.1502 1.37852 19.8995 1.1872C19.6276 0.979813 19.3141 0.814214 18.9231 0.814214C18.532 0.814214 18.2185 0.979813 17.9467 1.1872C17.6959 1.37853 17.4217 1.65278 17.1114 1.96312L17.0846 1.98995L3.65976 15.4148C3.64795 15.4266 3.63617 15.4383 3.62442 15.4501C3.46479 15.6092 3.31135 15.7623 3.20295 15.9537C3.09456 16.1451 3.0423 16.3555 2.98793 16.5742C2.98393 16.5903 2.97991 16.6065 2.97587 16.6227L1.62003 22.046C1.61762 22.0557 1.61518 22.0654 1.61272 22.0752C1.57411 22.2293 1.53044 22.4035 1.51593 22.5518C1.49978 22.7169 1.50127 23.0162 1.74255 23.2574Z" stroke="white" stroke-width="1.2"/>
<path d="M14.9375 3.58594L21.4081 10.0565" stroke="white"/>
</svg>
