<svg width="79" height="26" viewBox="0 0 79 26" fill="none" xmlns="http://www.w3.org/2000/svg">
<path d="M32.765 13.6846H28.8012L28.7797 12.0195H32.3783C32.9727 12.0195 33.4919 11.9193 33.9359 11.7188C34.3799 11.5182 34.7237 11.2318 34.9672 10.8594C35.2178 10.4798 35.3432 10.0286 35.3432 9.50586C35.3432 8.93294 35.2322 8.46745 35.0102 8.10938C34.7953 7.74414 34.4623 7.47917 34.0111 7.31445C33.5671 7.14258 33.0014 7.05664 32.3139 7.05664H29.2631V21H27.1898V5.35938H32.3139C33.116 5.35938 33.8321 5.44173 34.4623 5.60645C35.0925 5.764 35.626 6.01465 36.0629 6.3584C36.5069 6.69499 36.8435 7.12467 37.0727 7.64746C37.3018 8.17025 37.4164 8.79688 37.4164 9.52734C37.4164 10.1719 37.2517 10.7555 36.9223 11.2783C36.5928 11.7939 36.1345 12.2165 35.5473 12.5459C34.9672 12.8753 34.2868 13.0866 33.5063 13.1797L32.765 13.6846ZM32.6684 21H27.9848L29.1557 19.3135H32.6684C33.3272 19.3135 33.8858 19.1989 34.3441 18.9697C34.8096 18.7406 35.1641 18.4183 35.4076 18.0029C35.6511 17.5804 35.7729 17.0827 35.7729 16.5098C35.7729 15.9297 35.669 15.4284 35.4613 15.0059C35.2536 14.5833 34.9278 14.2575 34.4838 14.0283C34.0398 13.7992 33.4669 13.6846 32.765 13.6846H29.8109L29.8324 12.0195H33.8715L34.3119 12.6211C35.0639 12.6855 35.7012 12.9004 36.224 13.2656C36.7468 13.6237 37.1443 14.082 37.4164 14.6406C37.6957 15.1992 37.8354 15.8151 37.8354 16.4883C37.8354 17.4622 37.6205 18.2858 37.1908 18.959C36.7683 19.625 36.1703 20.1335 35.3969 20.4844C34.6234 20.8281 33.7139 21 32.6684 21ZM41.1697 15.3174V15.0703C41.1697 14.2324 41.2915 13.4554 41.535 12.7393C41.7785 12.016 42.1294 11.3893 42.5877 10.8594C43.046 10.3223 43.601 9.9069 44.2527 9.61328C44.9044 9.3125 45.6349 9.16211 46.4441 9.16211C47.2605 9.16211 47.9946 9.3125 48.6463 9.61328C49.3051 9.9069 49.8637 10.3223 50.3221 10.8594C50.7876 11.3893 51.1421 12.016 51.3855 12.7393C51.629 13.4554 51.7508 14.2324 51.7508 15.0703V15.3174C51.7508 16.1553 51.629 16.9323 51.3855 17.6484C51.1421 18.3646 50.7876 18.9912 50.3221 19.5283C49.8637 20.0583 49.3087 20.4736 48.657 20.7744C48.0125 21.068 47.282 21.2148 46.4656 21.2148C45.6492 21.2148 44.9152 21.068 44.2635 20.7744C43.6118 20.4736 43.0532 20.0583 42.5877 19.5283C42.1294 18.9912 41.7785 18.3646 41.535 17.6484C41.2915 16.9323 41.1697 16.1553 41.1697 15.3174ZM43.157 15.0703V15.3174C43.157 15.8975 43.2251 16.4453 43.3611 16.9609C43.4972 17.4694 43.7013 17.9206 43.9734 18.3145C44.2527 18.7083 44.6001 19.0199 45.0154 19.249C45.4308 19.471 45.9142 19.582 46.4656 19.582C47.0099 19.582 47.4861 19.471 47.8943 19.249C48.3097 19.0199 48.6535 18.7083 48.9256 18.3145C49.1977 17.9206 49.4018 17.4694 49.5379 16.9609C49.6811 16.4453 49.7527 15.8975 49.7527 15.3174V15.0703C49.7527 14.4974 49.6811 13.9567 49.5379 13.4482C49.4018 12.9326 49.1941 12.4779 48.9148 12.084C48.6427 11.6829 48.299 11.3678 47.8836 11.1387C47.4754 10.9095 46.9956 10.7949 46.4441 10.7949C45.8999 10.7949 45.4201 10.9095 45.0047 11.1387C44.5965 11.3678 44.2527 11.6829 43.9734 12.084C43.7013 12.4779 43.4972 12.9326 43.3611 13.4482C43.2251 13.9567 43.157 14.4974 43.157 15.0703ZM54.8166 15.3174V15.0703C54.8166 14.2324 54.9383 13.4554 55.1818 12.7393C55.4253 12.016 55.7762 11.3893 56.2346 10.8594C56.6929 10.3223 57.2479 9.9069 57.8996 9.61328C58.5513 9.3125 59.2818 9.16211 60.091 9.16211C60.9074 9.16211 61.6415 9.3125 62.2932 9.61328C62.952 9.9069 63.5106 10.3223 63.9689 10.8594C64.4344 11.3893 64.7889 12.016 65.0324 12.7393C65.2759 13.4554 65.3977 14.2324 65.3977 15.0703V15.3174C65.3977 16.1553 65.2759 16.9323 65.0324 17.6484C64.7889 18.3646 64.4344 18.9912 63.9689 19.5283C63.5106 20.0583 62.9556 20.4736 62.3039 20.7744C61.6594 21.068 60.9289 21.2148 60.1125 21.2148C59.2961 21.2148 58.562 21.068 57.9104 20.7744C57.2587 20.4736 56.7001 20.0583 56.2346 19.5283C55.7762 18.9912 55.4253 18.3646 55.1818 17.6484C54.9383 16.9323 54.8166 16.1553 54.8166 15.3174ZM56.8039 15.0703V15.3174C56.8039 15.8975 56.8719 16.4453 57.008 16.9609C57.1441 17.4694 57.3482 17.9206 57.6203 18.3145C57.8996 18.7083 58.2469 19.0199 58.6623 19.249C59.0777 19.471 59.5611 19.582 60.1125 19.582C60.6568 19.582 61.133 19.471 61.5412 19.249C61.9566 19.0199 62.3003 18.7083 62.5725 18.3145C62.8446 17.9206 63.0487 17.4694 63.1848 16.9609C63.328 16.4453 63.3996 15.8975 63.3996 15.3174V15.0703C63.3996 14.4974 63.328 13.9567 63.1848 13.4482C63.0487 12.9326 62.841 12.4779 62.5617 12.084C62.2896 11.6829 61.9458 11.3678 61.5305 11.1387C61.1223 10.9095 60.6424 10.7949 60.091 10.7949C59.5467 10.7949 59.0669 10.9095 58.6516 11.1387C58.2434 11.3678 57.8996 11.6829 57.6203 12.084C57.3482 12.4779 57.1441 12.9326 57.008 13.4482C56.8719 13.9567 56.8039 14.4974 56.8039 15.0703ZM70.9879 4.5V21H68.9898V4.5H70.9879ZM78.0885 9.37695L73.0182 14.8018L70.1822 17.7451L70.0211 15.6289L72.0514 13.2012L75.6607 9.37695H78.0885ZM76.273 21L72.1266 15.457L73.1578 13.6846L78.6148 21H76.273Z" fill="white"/>
<path d="M17.2858 22.6033C16.9966 22.6033 16.762 22.3687 16.762 22.0795V3.92065C16.762 3.43909 16.3705 3.04763 15.889 3.04763H1.92065C1.43909 3.04763 1.04763 3.43909 1.04763 3.92065V22.0795C1.04763 22.3687 0.813027 22.6033 0.523813 22.6033C0.234598 22.6033 0 22.3687 0 22.0795V3.92065C0 2.86143 0.861428 2 1.92065 2H15.889C16.9482 2 17.8096 2.86143 17.8096 3.92065V22.0795C17.8096 22.3687 17.575 22.6033 17.2858 22.6033Z" fill="white"/>
<path d="M17.2858 23.9975H1.92065C0.861428 23.9975 0 23.1361 0 22.0769C0 21.0177 0.861428 20.1562 1.92065 20.1562H17.2858C17.575 20.1562 17.8096 20.3908 17.8096 20.6801V23.4737C17.8096 23.7629 17.575 23.9975 17.2858 23.9975ZM1.92065 21.2039C1.43909 21.2039 1.04763 21.5953 1.04763 22.0769C1.04763 22.5585 1.43909 22.9499 1.92065 22.9499H16.762V21.2039H1.92065Z" fill="white"/>
<path d="M3.32069 21.2065C3.03147 21.2065 2.79688 20.9719 2.79688 20.6827V2.52381C2.79688 2.2346 3.03147 2 3.32069 2C3.6099 2 3.8445 2.2346 3.8445 2.52381V20.6827C3.8445 20.9719 3.6099 21.2065 3.32069 21.2065Z" fill="white"/>
<path d="M10.3034 17.0208C7.31874 17.0208 4.89062 14.5927 4.89062 11.608C4.89062 8.62343 7.31874 6.19531 10.3034 6.19531C13.288 6.19531 15.7161 8.62343 15.7161 11.608C15.7161 14.5927 13.288 17.0208 10.3034 17.0208ZM10.3034 7.24294C7.8964 7.24294 5.93825 9.20109 5.93825 11.608C5.93825 14.015 7.8964 15.9732 10.3034 15.9732C12.7103 15.9732 14.6685 14.015 14.6685 11.608C14.6685 9.20109 12.7103 7.24294 10.3034 7.24294Z" fill="white"/>
<path d="M13.8035 15.5339C13.6678 15.5339 13.5327 15.4813 13.4304 15.3777C12.4325 14.3642 11.8828 13.0205 11.8828 11.5951C11.8828 10.1696 12.4325 8.82599 13.4304 7.81245C13.6329 7.60718 13.9644 7.60306 14.171 7.807C14.377 8.00954 14.3797 8.34171 14.1765 8.54767C13.373 9.36405 12.9304 10.4465 12.9304 11.5951C12.9304 12.7436 13.373 13.826 14.1765 14.6425C14.3797 14.8484 14.377 15.1806 14.171 15.3831C14.0687 15.4841 13.9365 15.5339 13.8035 15.5339Z" fill="white"/>
<path d="M6.80509 15.5339C6.67211 15.5339 6.53976 15.4841 6.43744 15.3831C6.23148 15.1806 6.22875 14.8484 6.43199 14.6425C7.23545 13.8261 7.67811 12.7436 7.67811 11.5951C7.67811 10.4465 7.23545 9.36412 6.43199 8.54767C6.22875 8.34171 6.23148 8.00954 6.43744 7.807C6.6434 7.60306 6.97487 7.60718 7.17811 7.81245C8.17594 8.82599 8.72566 10.1696 8.72566 11.5951C8.72566 13.0205 8.17594 14.3642 7.17811 15.3777C7.07579 15.4813 6.94086 15.5339 6.80509 15.5339Z" fill="white"/>
<path d="M17.289 21.2065H3.32069C3.03147 21.2065 2.79688 20.9719 2.79688 20.6827V2.52381C2.79688 2.2346 3.03147 2 3.32069 2H17.289C17.5782 2 17.8128 2.2346 17.8128 2.52381V20.6827C17.8128 20.9719 17.5782 21.2065 17.289 21.2065ZM3.8445 20.1588H16.7652V3.04763H3.8445V20.1588Z" fill="white"/>
<path d="M10.3051 17.0181C10.0158 17.0181 9.78125 16.7835 9.78125 16.4942V6.71913C9.78125 6.42991 10.0158 6.19531 10.3051 6.19531C10.5943 6.19531 10.8289 6.42991 10.8289 6.71913V16.4942C10.8289 16.7835 10.5943 17.0181 10.3051 17.0181Z" fill="white"/>
<path d="M15.1896 12.1336H5.41444C5.12522 12.1336 4.89062 11.899 4.89062 11.6098C4.89062 11.3205 5.12522 11.0859 5.41444 11.0859H15.1896C15.4788 11.0859 15.7134 11.3205 15.7134 11.6098C15.7134 11.899 15.4788 12.1336 15.1896 12.1336Z" fill="white"/>
</svg>
