<svg width="21" height="22" viewBox="0 0 21 22" fill="none" xmlns="http://www.w3.org/2000/svg">
<path fill-rule="evenodd" clip-rule="evenodd" d="M8.17642 1.95645C7.41005 2.4442 6.51104 3.18519 5.25028 4.22653L3.91116 5.3326C2.48415 6.51126 1.93742 6.98102 1.64546 7.59272C1.3535 8.20441 1.33918 8.91014 1.33918 10.7213V16.1931C1.33918 17.428 1.3406 18.2892 1.43126 18.939C1.51933 19.5703 1.68043 19.9046 1.92751 20.1427C2.17459 20.3807 2.52148 20.536 3.17656 20.6208C3.8509 20.7082 4.74464 20.7096 6.02611 20.7096H14.0608C15.3423 20.7096 16.2361 20.7082 16.9104 20.6208C17.5655 20.536 17.9124 20.3807 18.1594 20.1427C18.4065 19.9046 18.5676 19.5703 18.6557 18.939C18.7464 18.2892 18.7478 17.428 18.7478 16.1931V10.7213C18.7478 8.91014 18.7335 8.20441 18.4415 7.59272C18.1495 6.98102 17.6028 6.51126 16.1758 5.3326L14.8367 4.22653C13.5759 3.18518 12.6769 2.4442 11.9105 1.95645C11.1598 1.47868 10.6056 1.29042 10.0435 1.29042C9.48139 1.29042 8.92712 1.47868 8.17642 1.95645ZM7.43842 0.879686C8.30685 0.326981 9.11945 0 10.0435 0C10.9675 0 11.7801 0.326981 12.6485 0.879686C13.4932 1.41726 14.4552 2.21188 15.673 3.21775L17.0473 4.35284C17.0882 4.38667 17.1287 4.4201 17.1688 4.45314C18.4321 5.49607 19.2286 6.15363 19.6581 7.05351C20.0876 7.95339 20.0874 8.96409 20.0869 10.5671C20.0869 10.6179 20.0869 10.6693 20.0869 10.7213V16.2403C20.0869 17.4168 20.0869 18.3651 19.9829 19.111C19.8748 19.8853 19.6437 20.5373 19.1064 21.0551C18.569 21.5729 17.8924 21.7957 17.0888 21.8998C16.3149 22 15.3308 22 14.1099 22H5.9771C4.75619 22 3.7721 22 2.99813 21.8998C2.19456 21.7957 1.51796 21.5729 0.980603 21.0551C0.443243 20.5373 0.212116 19.8853 0.104078 19.111C1.89867e-05 18.3651 3.38336e-05 17.4168 5.22715e-05 16.2403L5.27504e-05 10.7213C5.27504e-05 10.6693 3.92612e-05 10.6179 2.59316e-05 10.5671C-0.000395348 8.96409 -0.000660973 7.95339 0.428847 7.05351C0.858354 6.15363 1.65488 5.49607 2.9182 4.45314C2.95822 4.4201 2.99871 4.38667 3.03967 4.35284L4.41395 3.21773C5.63174 2.21187 6.59376 1.41726 7.43842 0.879686Z" fill="white"/>
<path fill-rule="evenodd" clip-rule="evenodd" d="M5.74219 15.2275C5.74219 14.2087 6.70575 13.3828 7.89436 13.3828H12.1987C13.3873 13.3828 14.3509 14.2087 14.3509 15.2275V21.3766C14.3509 21.7162 14.0297 21.9915 13.6335 21.9915C13.2373 21.9915 12.9161 21.7162 12.9161 21.3766V15.2275C12.9161 14.8879 12.5949 14.6126 12.1987 14.6126H7.89436C7.49816 14.6126 7.17697 14.8879 7.17697 15.2275V21.3766C7.17697 21.7162 6.85578 21.9915 6.45958 21.9915C6.06337 21.9915 5.74219 21.7162 5.74219 21.3766V15.2275Z" fill="white"/>
</svg>
