<svg width="32" height="18" viewBox="0 0 32 18" fill="none" xmlns="http://www.w3.org/2000/svg">
<path fill-rule="evenodd" clip-rule="evenodd" d="M16.0064 5.40017C17.0005 5.40017 17.8064 4.59426 17.8064 3.60011C17.8064 2.60597 17.0005 1.80006 16.0064 1.80006C15.0122 1.80006 14.2063 2.60597 14.2063 3.60011C14.2063 4.59426 15.0122 5.40017 16.0064 5.40017ZM16.0064 7.20023C17.9947 7.20023 19.6065 5.5884 19.6065 3.60011C19.6065 1.61183 17.9947 0 16.0064 0C14.0181 0 12.4062 1.61183 12.4062 3.60011C12.4062 5.5884 14.0181 7.20023 16.0064 7.20023Z" fill="white"/>
<path fill-rule="evenodd" clip-rule="evenodd" d="M25.9064 2.04122C25.4929 1.80252 25.0016 1.73784 24.5405 1.8614C24.0793 1.98496 23.6862 2.28664 23.4475 2.70009C23.2088 3.11353 23.1441 3.60487 23.2676 4.066C23.3912 4.52714 23.6929 4.9203 24.1063 5.15901C24.5198 5.39771 25.0111 5.46239 25.4723 5.33883C25.9334 5.21527 26.3266 4.91358 26.5653 4.50014C26.804 4.0867 26.8686 3.59536 26.7451 3.13423C26.6215 2.67309 26.3198 2.27993 25.9064 2.04122ZM24.0746 0.12268C24.9969 -0.124443 25.9795 0.00492811 26.8064 0.482332C27.6333 0.959735 28.2367 1.74607 28.4838 2.66834C28.7309 3.59061 28.6016 4.57328 28.1241 5.40017C27.6467 6.22705 26.8604 6.83043 25.9381 7.07755C25.0159 7.32467 24.0332 7.1953 23.2063 6.7179C22.3794 6.24049 21.7761 5.45416 21.5289 4.53189C21.2818 3.60962 21.4112 2.62695 21.8886 1.80006C22.366 0.973175 23.1523 0.369802 24.0746 0.12268Z" fill="white"/>
<path fill-rule="evenodd" clip-rule="evenodd" d="M7.90639 2.04122C7.49295 1.80252 7.00161 1.73784 6.54048 1.8614C6.07934 1.98496 5.68618 2.28664 5.44747 2.70009C5.20877 3.11353 5.14409 3.60487 5.26765 4.066C5.39121 4.52714 5.69289 4.9203 6.10634 5.15901C6.51978 5.39771 7.01112 5.46239 7.47225 5.33883C7.93339 5.21527 8.32655 4.91358 8.56526 4.50014C8.80396 4.0867 8.86864 3.59536 8.74508 3.13423C8.62152 2.67309 8.31983 2.27993 7.90639 2.04122ZM6.07459 0.12268C6.99686 -0.124443 7.97953 0.00492811 8.80642 0.482332C9.63331 0.959735 10.2367 1.74607 10.4838 2.66834C10.7309 3.59061 10.6016 4.57328 10.1241 5.40017C9.64674 6.22705 8.86041 6.83043 7.93814 7.07755C7.01587 7.32467 6.0332 7.1953 5.20631 6.7179C4.37942 6.24049 3.77605 5.45416 3.52893 4.53189C3.28181 3.60962 3.41118 2.62695 3.88858 1.80006C4.36599 0.973175 5.15232 0.369802 6.07459 0.12268Z" fill="white"/>
<path fill-rule="evenodd" clip-rule="evenodd" d="M21.2446 11.3337C22.2559 12.5652 22.7334 14.0355 22.9639 15.1325C23.0442 15.5143 23.0321 15.8736 22.9481 16.2002H29.4986C29.7529 16.2002 29.9536 16.0966 30.0691 15.9692C30.175 15.8525 30.2209 15.709 30.1785 15.532C29.9443 14.5547 29.4778 13.3717 28.5666 12.4413C27.6798 11.5358 26.3054 10.8001 24.0985 10.8001C22.9258 10.8001 21.9923 11.008 21.2446 11.3337ZM20.4984 18.0003H29.4986C30.938 18.0003 32.3265 16.771 31.929 15.1124C31.6522 13.9575 31.0746 12.4295 29.8527 11.1818C28.6064 9.90926 26.7587 9 24.0985 9C22.0364 9 20.4525 9.54605 19.2552 10.4015L18.2969 11.0861L19.2092 11.831C20.3847 12.7908 20.9455 14.2806 21.2024 15.5027C21.2413 15.6881 21.1902 15.842 21.0772 15.9651C20.9561 16.0971 20.7522 16.2002 20.4984 16.2002V18.0003Z" fill="white"/>
<path fill-rule="evenodd" clip-rule="evenodd" d="M3.43134 12.4413C2.52018 13.3717 2.05369 14.5547 1.81945 15.532C1.77702 15.709 1.82297 15.8525 1.92882 15.9692C2.04432 16.0966 2.24504 16.2002 2.4993 16.2002H9.04981C8.9658 15.8736 8.95371 15.5143 9.03397 15.1325C9.26454 14.0355 9.74202 12.5652 10.7534 11.3337C10.0056 11.008 9.07209 10.8001 7.89946 10.8001C5.69253 10.8001 4.31814 11.5358 3.43134 12.4413ZM11.4995 16.2002C11.2457 16.2002 11.0418 16.0971 10.9207 15.9651C10.8077 15.842 10.7566 15.6881 10.7955 15.5027C11.0524 14.2806 11.6132 12.7907 12.7888 11.8309L13.7011 11.0861L12.7427 10.4014C11.5454 9.54604 9.96158 9 7.89946 9C5.23931 9 3.39159 9.90926 2.1453 11.1818C0.923372 12.4295 0.345784 13.9575 0.0689729 15.1124C-0.328562 16.771 1.05991 18.0003 2.4993 18.0003H11.4995V16.2002Z" fill="white"/>
<path fill-rule="evenodd" clip-rule="evenodd" d="M12.2248 12.3952C11.4299 13.3218 11.0164 14.5105 10.8079 15.5027C10.7689 15.6881 10.82 15.842 10.933 15.9651C11.0542 16.0971 11.258 16.2002 11.5118 16.2002H20.5121C20.766 16.2002 20.9698 16.0971 21.091 15.9651C21.2039 15.842 21.2551 15.6881 21.2161 15.5027C21.0075 14.5105 20.594 13.3218 19.7991 12.3952C19.0335 11.5028 17.8721 10.8001 16.012 10.8001C14.1519 10.8001 12.9905 11.5028 12.2248 12.3952ZM10.8586 11.2232C11.9595 9.93995 13.6164 9 16.012 9C18.4076 9 20.0645 9.93995 21.1654 11.2232C22.2369 12.4723 22.7381 13.9925 22.9777 15.1325C23.3229 16.7752 21.9592 18.0003 20.5121 18.0003H11.5118C10.0648 18.0003 8.70103 16.7752 9.04631 15.1325C9.28592 13.9925 9.78704 12.4723 10.8586 11.2232Z" fill="white"/>
</svg>
