<svg width="200" height="69" viewBox="0 0 200 69" fill="none" xmlns="http://www.w3.org/2000/svg">
<g clip-path="url(#clip0_29_2)">
<mask id="mask0_29_2" style="mask-type:luminance" maskUnits="userSpaceOnUse" x="0" y="0" width="200" height="69">
<path d="M200 0H0V68.2445H200V0Z" fill="white"/>
</mask>
<g mask="url(#mask0_29_2)">
<path fill-rule="evenodd" clip-rule="evenodd" d="M138.723 53.9336H146.284L149.216 41.6618C149.677 39.9981 150.155 38.7624 150.797 38.1697C152.329 36.7531 156.464 36.9837 156.464 36.9837L158.144 30.049C155.525 30.0654 151.456 30.0161 148.936 30.708C147.486 31.1025 145.938 32.2234 145.065 33.1295C143.467 34.7932 142.512 38.2358 142.512 38.2358L138.723 53.9336ZM73.3451 36.3247H100.968C102.583 36.3577 103.868 36.9837 104.46 37.8072C105.185 38.8119 105.959 40.3275 104.773 43.1772C103.505 46.2081 101.232 47.1304 98.8435 47.1965H93.9024L95.945 38.6474H88.3348L81.5318 67.1771H89.0926L92.2717 53.917C92.2717 53.917 94.479 53.9336 97.3121 53.9336C99.5194 53.8841 102.089 53.6205 104.527 52.3523C107.162 50.985 108.958 48.6955 110.078 46.6365C111.116 44.7431 111.791 41.6464 111.939 39.9488C112.071 38.4498 112.269 35.946 110.44 33.5082C109.617 32.4036 107.788 31.0374 105.943 30.6088C103.934 30.1311 101.117 30.1147 101.117 30.1147H72.3898C67.9589 30.1642 65.6032 31.6796 64.2855 33.0303C62.9387 34.4318 62.1735 36.2919 62.1441 38.2354C62.1441 39.8825 62.5889 41.645 63.5445 42.6993C64.4175 43.6547 65.8835 44.7253 68.7827 44.9229H73.8232C74.1937 44.9307 74.5607 44.9973 74.9103 45.1202C75.1068 45.2153 75.2683 45.37 75.3718 45.5622C75.4753 45.7544 75.5155 45.9744 75.4869 46.1908C75.4044 46.7344 75.2234 47.4263 73.3784 47.4926H59.0472L56.6094 53.9665H73.8393C76.1289 53.9336 80.3788 53.5054 82.306 50.178C83.0308 48.9425 83.6733 46.6034 83.6896 44.8904C83.7149 43.6504 83.3895 42.4285 82.7508 41.3654C82.2896 40.5746 81.4001 39.6691 79.6376 39.0758C78.7151 38.7628 76.7054 38.7135 76.7054 38.7135H71.9614C71.0389 38.7135 70.3307 38.4334 70.4295 37.5275C70.4636 37.2677 70.5742 37.024 70.7472 36.8273C70.9203 36.6306 71.148 36.4899 71.4013 36.423C71.7957 36.2912 73.3451 36.3243 73.3451 36.3243V36.3247ZM128 35.0563C126.122 35.0729 124.491 35.7811 122.91 37.3129C121.395 38.7624 120.604 41.0356 120.439 43.0287C120.34 44.2642 120.686 45.9772 121.51 47.0314C122.317 48.0691 123.948 48.8434 125.496 48.8105C127.835 48.7446 129.449 48.0363 130.734 46.6198C132.25 44.9561 133.254 42.4687 133.189 40.1133C133.156 38.8778 132.893 37.6095 131.788 36.5058C130.668 35.3857 129.153 35.0397 128 35.0563L128.971 29.4394C132.101 29.4064 135.544 30.263 137.751 32.3715C139.958 34.4963 140.403 37.2967 140.37 39.6028C140.321 42.4855 139.316 46.4387 135.791 50.2438C132.678 53.6042 127.258 54.9056 123.519 54.7409C119.764 54.5762 116.996 53.3902 114.954 51.2817C113.175 49.4367 112.532 47.2955 112.532 44.5776C112.532 42.1726 113.306 39.0594 115.596 35.9955C118.298 32.4046 123.47 29.5064 128.972 29.4232L128 35.0563ZM161.834 23.3281H169.461L167.812 30.1476H173.594L171.996 36.9013H166.215L164.502 44.4129C164.222 45.9448 164.486 46.719 165.359 47.2296C165.721 47.4438 166.924 47.5427 166.924 47.5427H183.38C185.208 47.5097 186.526 47.3454 186.592 46.1261C186.658 44.8742 185.093 44.9072 185.093 44.9072H180.415C177.96 44.7918 175.918 44.1164 174.946 43.0788C174.106 42.1728 173.332 40.8385 173.381 38.2523C173.447 35.3202 174.995 33.2283 175.671 32.5859C176.346 31.9435 178.833 30.1151 182.441 30.1644H199.521L197.149 36.3086H183.133C182.21 36.3415 181.798 36.4733 181.535 36.8026C181.392 36.9804 181.297 37.192 181.259 37.417C181.222 37.642 181.243 37.8729 181.321 38.0875C181.485 38.4819 181.897 38.631 183.067 38.6969H187.448C189.689 38.8123 191.533 39.1746 192.653 40.0973C193.658 40.9539 194.646 42.0575 194.646 44.9072C194.652 46.0967 194.418 47.2752 193.96 48.3729C193.502 49.4706 192.828 50.4651 191.978 51.2977C190.644 52.6649 188.799 53.6533 183.264 53.9332H162.938C160.73 53.9002 158.935 53.999 157.237 52.0718C155.557 50.1446 156.133 47.7397 156.282 46.389L161.834 23.3281Z" fill="white"/>
<path d="M65.4785 16.4585C65.4785 16.2415 65.4785 3.75633 65.4982 1.50781H60.8828V16.5177C60.8975 19.5157 62.0955 22.3866 64.2161 24.5058C64.4448 24.7448 64.6886 24.9688 64.9459 25.1765C67.0564 26.9319 69.6008 27.8392 72.5593 27.8392H75.2221V23.2435H72.2635C70.465 23.2403 68.7411 22.5244 67.4693 21.2527C66.1976 19.9809 65.4817 18.257 65.4785 16.4585Z" fill="url(#paint0_linear_29_2)"/>
<path d="M129.442 7.65926C127.864 6.00245 125.872 5.35156 123.682 5.35156C121.454 5.35156 119.442 6.08135 117.903 7.65926C117.168 8.45354 116.562 9.3588 116.108 10.3417C115.65 9.35673 115.037 8.45119 114.294 7.65926C112.755 6.06162 110.763 5.35156 108.515 5.35156C106.345 5.35156 104.353 6.02218 102.755 7.65926C101.059 9.4344 100.211 11.9985 100.211 14.8979V27.7776H104.787C104.807 26.0222 104.846 18.1129 104.846 14.8979C104.846 10.9137 107.016 9.49357 109.166 9.49357C109.649 9.49517 110.128 9.57511 110.586 9.73026C111.513 10.0064 112.519 10.894 112.953 11.6238C113.386 12.3141 113.663 13.1228 113.663 14.7598V27.7776H118.515V14.7598C118.515 13.1228 118.791 12.3141 119.225 11.6238C119.678 10.894 120.684 9.98667 121.592 9.73026C122.042 9.5736 122.515 9.49359 122.992 9.49357C125.142 9.49357 127.312 10.9137 127.312 14.8979C127.312 18.1129 127.371 26.0222 127.371 27.7776H131.947V14.8979C131.986 11.9985 131.158 9.4344 129.442 7.65926Z" fill="url(#paint1_linear_29_2)"/>
<path d="M97.625 16.3735C97.625 13.336 96.5008 10.9494 94.5284 8.81925C93.4888 7.71792 92.2354 6.84028 90.8449 6.24C89.4545 5.63972 87.9561 5.32944 86.4416 5.32812C83.1477 5.32813 80.3272 6.59045 78.059 8.97704C76.0274 11.1072 75.2188 13.6713 75.2188 16.8074C75.2188 19.9435 76.4613 22.9218 78.7099 24.9337C81.057 27.0441 83.5028 28.1289 87.0333 28.1289C89.9909 28.0785 92.8643 27.1368 95.2779 25.4268L92.2996 22.4484C90.7834 23.4966 88.9943 24.0792 87.1517 24.125C84.6073 24.125 81.7473 22.5076 80.5639 20.3577L97.5856 17.3597C97.5856 17.0638 97.625 16.6693 97.625 16.3735ZM80.0708 16.0382C80.13 12.6851 82.0038 9.52931 86.4811 9.52931C90.4456 9.52931 92.2996 12.1723 92.7335 14.263L80.0708 16.4918V16.0382Z" fill="url(#paint2_linear_29_2)"/>
<path d="M147.336 14.8191C147.335 14.4649 147.439 14.1184 147.635 13.8234C147.831 13.5284 148.11 13.2981 148.437 13.1616C148.764 13.0252 149.123 12.9887 149.471 13.0569C149.819 13.1251 150.138 13.2948 150.389 13.5445C150.64 13.7943 150.812 14.1129 150.882 14.4601C150.952 14.8073 150.917 15.1674 150.782 15.495C150.648 15.8225 150.419 16.1028 150.125 16.3003C149.831 16.4978 149.485 16.6036 149.131 16.6045C148.896 16.6052 148.663 16.5596 148.445 16.4702C148.228 16.3808 148.03 16.2495 147.863 16.0837C147.697 15.9179 147.564 15.7209 147.474 15.5039C147.383 15.2869 147.336 15.0542 147.336 14.8191Z" fill="url(#paint3_linear_29_2)"/>
<path d="M152.161 12.161L156.457 9.68173C156.799 9.48076 157.049 9.1529 157.153 8.76904C157.256 8.38518 157.204 7.97617 157.007 7.63045C156.944 7.52352 156.869 7.42424 156.783 7.33459C155.414 5.93506 153.689 4.93657 151.794 4.44722C151.408 4.34666 150.999 4.40291 150.654 4.60366C150.31 4.80441 150.06 5.13332 149.957 5.51842C149.925 5.64177 149.908 5.76851 149.906 5.89593V10.8657C149.907 11.0633 149.947 11.2588 150.023 11.4411C150.099 11.6234 150.211 11.7889 150.351 11.9281C150.491 12.0673 150.657 12.1775 150.84 12.2524C151.023 12.3273 151.219 12.3655 151.416 12.3648C151.677 12.3552 151.932 12.2854 152.161 12.161Z" fill="url(#paint4_linear_29_2)"/>
<path d="M148.344 10.8577V5.89828C148.346 5.66877 148.294 5.44203 148.194 5.23572C148.093 5.02941 147.946 4.84912 147.764 4.70891C147.583 4.56869 147.371 4.47233 147.146 4.42734C146.921 4.38236 146.689 4.38996 146.467 4.44956C144.568 4.93733 142.839 5.93639 141.468 7.33812C141.329 7.4788 141.22 7.6456 141.146 7.82885C141.073 8.01209 141.036 8.20813 141.039 8.40556C141.042 8.603 141.084 8.7979 141.163 8.97895C141.242 9.16 141.356 9.32359 141.498 9.46021C141.588 9.54617 141.687 9.62149 141.794 9.68467L146.089 12.1636C146.26 12.2633 146.449 12.3282 146.646 12.3544C146.842 12.3807 147.042 12.3679 147.234 12.3167C147.425 12.2655 147.605 12.1769 147.762 12.0561C147.919 11.9353 148.051 11.7846 148.15 11.6127C148.275 11.3805 148.341 11.1214 148.344 10.8577Z" fill="url(#paint5_linear_29_2)"/>
<path d="M152.947 16.1146L157.242 18.5938C157.587 18.7924 157.997 18.8458 158.381 18.7426C158.766 18.6393 159.094 18.3877 159.293 18.043C159.355 17.9375 159.403 17.8243 159.436 17.7063C159.966 15.8179 159.966 13.8199 159.436 11.9315C159.329 11.5488 159.074 11.2242 158.728 11.0291C158.382 10.834 157.972 10.7843 157.589 10.8909C157.468 10.9234 157.351 10.9714 157.242 11.0337L152.947 13.513C152.776 13.6103 152.627 13.7404 152.506 13.8958C152.386 14.0513 152.298 14.229 152.247 14.4186C152.196 14.6083 152.182 14.8062 152.208 15.001C152.234 15.1958 152.298 15.3836 152.396 15.5536C152.519 15.7918 152.711 15.9874 152.947 16.1146Z" fill="url(#paint6_linear_29_2)"/>
<path d="M146.09 17.4669L141.795 19.9462C141.452 20.1472 141.202 20.475 141.099 20.8589C140.996 21.2428 141.048 21.6518 141.244 21.9975C141.307 22.1044 141.382 22.2037 141.468 22.2934C142.837 23.6927 144.562 24.691 146.457 25.1801C146.843 25.2807 147.253 25.2244 147.597 25.0237C147.941 24.8229 148.192 24.494 148.294 24.1089C148.326 23.9856 148.343 23.8588 148.345 23.7314V18.773C148.34 18.3735 148.177 17.9922 147.892 17.7117C147.608 17.4311 147.224 17.2739 146.825 17.274C146.566 17.2664 146.311 17.3334 146.09 17.4669Z" fill="url(#paint7_linear_29_2)"/>
<path d="M145.317 13.5076L141.022 11.0283C140.677 10.8298 140.267 10.7763 139.882 10.8796C139.498 10.9829 139.17 11.2345 138.97 11.5792C138.908 11.6847 138.86 11.7979 138.828 11.9159C138.297 13.8042 138.297 15.8023 138.828 17.6906C138.935 18.0735 139.189 18.3981 139.536 18.5933C139.882 18.7885 140.292 18.8382 140.675 18.7315C140.796 18.6989 140.913 18.6509 141.022 18.5887L145.327 16.1094C145.498 16.0111 145.648 15.8801 145.769 15.7237C145.889 15.5673 145.977 15.3887 146.029 15.1981C146.08 15.0075 146.093 14.8087 146.067 14.6131C146.041 14.4175 145.977 14.2288 145.878 14.0581C145.737 13.8333 145.544 13.6448 145.317 13.5076Z" fill="url(#paint8_linear_29_2)"/>
<path d="M149.906 18.7647V23.7334C149.907 23.931 149.947 24.1265 150.023 24.3088C150.099 24.491 150.211 24.6565 150.351 24.7957C150.491 24.9349 150.657 25.0451 150.84 25.12C151.023 25.195 151.219 25.2331 151.416 25.2324C151.54 25.2311 151.664 25.214 151.784 25.1813C153.679 24.6923 155.404 23.6943 156.773 22.2953C156.911 22.1546 157.021 21.9878 157.094 21.8046C157.168 21.6213 157.204 21.4253 157.201 21.2279C157.198 21.0304 157.156 20.8355 157.077 20.6545C156.999 20.4734 156.885 20.3099 156.742 20.1732C156.652 20.0873 156.553 20.012 156.446 19.9488L152.151 17.4695C151.807 17.2693 151.398 17.2138 151.013 17.3152C150.629 17.4166 150.3 17.6666 150.1 18.0103C149.976 18.2429 149.91 18.5015 149.906 18.7647Z" fill="url(#paint9_linear_29_2)"/>
<path d="M149.124 28.6538C146.388 28.6538 143.713 27.8424 141.438 26.3222C139.163 24.802 137.389 22.6414 136.342 20.1134C135.295 17.5854 135.021 14.8037 135.555 12.1201C136.089 9.43639 137.406 6.97129 139.341 5.03647C141.276 3.10165 143.741 1.78403 146.425 1.25021C149.108 0.716396 151.89 0.99037 154.418 2.03749C156.946 3.0846 159.107 4.85783 160.627 7.13293C162.147 9.40804 162.959 12.0828 162.959 14.8191C162.959 16.6359 162.601 18.435 161.906 20.1136C161.211 21.7921 160.191 23.3173 158.907 24.602C157.622 25.8867 156.097 26.9058 154.418 27.601C152.74 28.2962 150.941 28.6539 149.124 28.6538ZM161.398 14.8191C161.396 12.3931 160.676 10.022 159.328 8.0053C157.979 5.98864 156.063 4.41705 153.822 3.48918C151.58 2.56131 149.114 2.31882 146.735 2.79237C144.355 3.26592 142.17 4.43425 140.454 6.14966C138.739 7.86507 137.571 10.0505 137.097 12.4298C136.624 14.8091 136.866 17.2754 137.794 19.5169C138.722 21.7584 140.293 23.6745 142.31 25.023C144.327 26.3714 146.698 27.0917 149.124 27.0928C150.736 27.0942 152.333 26.7776 153.822 26.1613C155.312 25.5449 156.666 24.6409 157.806 23.5009C158.946 22.3609 159.85 21.0073 160.466 19.5175C161.083 18.0278 161.399 16.4311 161.398 14.8189L161.398 14.8191Z" fill="url(#paint10_linear_29_2)"/>
<path d="M25.4375 28.6701C25.4355 27.9633 25.6431 27.2717 26.0342 26.6828C26.4252 26.094 26.9821 25.6343 27.6343 25.3619C28.2866 25.0895 29.005 25.0167 29.6987 25.1526C30.3924 25.2886 31.0302 25.6271 31.5314 26.1256C32.0327 26.624 32.3749 27.2598 32.5148 27.9527C32.6546 28.6456 32.5859 29.3644 32.3172 30.0182C32.0486 30.6721 31.5921 31.2315 31.0054 31.6259C30.4188 32.0203 29.7284 32.2319 29.0215 32.2338C28.5521 32.2354 28.087 32.1445 27.6528 31.9662C27.2186 31.7879 26.8238 31.5258 26.4909 31.1948C26.158 30.8639 25.8937 30.4705 25.7129 30.0373C25.5322 29.6041 25.4386 29.1395 25.4375 28.6701Z" fill="#2EC4F3"/>
<path d="M35.0629 23.3752L43.6361 18.4267C44.3202 18.0256 44.819 17.3714 45.0248 16.6056C45.2305 15.8397 45.1267 15.0236 44.7357 14.3336C44.6096 14.1202 44.4593 13.9221 44.2877 13.7431C41.5563 10.9497 38.1126 8.95683 34.3298 7.98019C33.5602 7.77945 32.7425 7.89173 32.0555 8.29247C31.3685 8.69321 30.8683 9.34977 30.6643 10.1185C30.6005 10.3647 30.5663 10.6176 30.5625 10.8719V20.7891C30.5637 21.1835 30.6426 21.5739 30.7948 21.9379C30.9469 22.3018 31.1693 22.6322 31.4492 22.9102C31.729 23.1882 32.061 23.4084 32.4259 23.558C32.7909 23.7077 33.1818 23.784 33.5763 23.7825C34.0966 23.7632 34.6054 23.6238 35.0629 23.3752Z" fill="#BFD633"/>
<path d="M27.4485 20.7658V10.8689C27.4515 10.4108 27.3486 9.9581 27.1478 9.54625C26.9471 9.1344 26.6539 8.77449 26.2912 8.49459C25.9284 8.21469 25.5059 8.02237 25.0566 7.93262C24.6073 7.84288 24.1434 7.85813 23.701 7.97721C19.9106 8.95002 16.4595 10.9432 13.7227 13.7401C13.4461 14.0209 13.2281 14.3539 13.0813 14.7196C12.9345 15.0854 12.8618 15.4767 12.8675 15.8708C12.8732 16.2648 12.9571 16.6539 13.1144 17.0152C13.2717 17.3766 13.4992 17.7031 13.7838 17.9758C13.9627 18.1474 14.1609 18.2977 14.3743 18.4237L22.9475 23.3723C23.2895 23.5713 23.6675 23.7008 24.0597 23.7532C24.4519 23.8056 24.8506 23.78 25.2329 23.6778C25.6151 23.5756 25.9735 23.3989 26.2872 23.1577C26.6009 22.9166 26.8639 22.6158 27.0609 22.2727C27.3102 21.8091 27.4432 21.292 27.4485 20.7658Z" fill="#2EC4F3"/>
<path d="M36.6335 31.2548L45.2066 36.2033C45.8955 36.5991 46.7132 36.7057 47.4805 36.4995C48.2478 36.2934 48.902 35.7914 49.2997 35.1037C49.4238 34.8931 49.5194 34.6671 49.5844 34.4315C50.6433 30.6624 50.6433 26.6745 49.5844 22.9055C49.3705 22.1416 48.8622 21.4939 48.1711 21.1044C47.4801 20.715 46.6627 20.6157 45.8986 20.8283C45.6565 20.8933 45.4238 20.989 45.2062 21.1134L36.6331 26.0617C36.2924 26.2559 35.9936 26.5156 35.7537 26.8258C35.5139 27.136 35.3378 27.4906 35.2356 27.8692C35.1334 28.2478 35.1071 28.6428 35.1582 29.0316C35.2093 29.4204 35.3369 29.7952 35.5335 30.1345C35.7786 30.6104 36.1621 31.0009 36.6335 31.2548Z" fill="#23A431"/>
<path d="M22.9473 33.9584L14.3749 38.9067C13.6908 39.3078 13.192 39.962 12.9862 40.7279C12.7804 41.4938 12.8843 42.3098 13.2753 42.9998C13.4014 43.2132 13.5517 43.4114 13.7232 43.5903C16.4547 46.3837 19.8984 48.3766 23.6812 49.3532C24.4506 49.5537 25.2681 49.4413 25.9548 49.0406C26.6416 48.6399 27.1417 47.9836 27.3457 47.2152C27.4095 46.969 27.4437 46.716 27.4475 46.4617V36.5649C27.437 35.7674 27.1129 35.006 26.5452 34.4458C25.9775 33.8855 25.212 33.5714 24.4144 33.5714C23.8983 33.5567 23.389 33.6911 22.9473 33.9584Z" fill="#BFD633"/>
<path d="M21.4017 26.0583L12.8286 21.11C12.1397 20.7141 11.322 20.6076 10.5547 20.8137C9.78743 21.0198 9.13319 21.5218 8.73546 22.2096C8.61132 22.4201 8.51549 22.646 8.45045 22.8816C7.39152 26.6506 7.39152 30.6386 8.45045 34.4076C8.66435 35.1714 9.17261 35.8192 9.86366 36.2086C10.5547 36.5981 11.3721 36.6974 12.1362 36.4847C12.3783 36.4198 12.611 36.324 12.8286 36.1997L21.422 31.2512C21.7635 31.0552 22.063 30.7936 22.3031 30.4816C22.5433 30.1696 22.7196 29.8132 22.8217 29.433C22.9239 29.0527 22.95 28.656 22.8985 28.2656C22.847 27.8752 22.7189 27.4989 22.5217 27.1581C22.2393 26.7091 21.8557 26.3325 21.4017 26.0583Z" fill="#23A431"/>
<path d="M30.5625 36.5471V46.4643C30.5637 46.8588 30.6426 47.2491 30.7948 47.6131C30.9469 47.9771 31.1693 48.3075 31.4492 48.5855C31.729 48.8635 32.061 49.0836 32.4259 49.2333C32.7909 49.3829 33.1818 49.4592 33.5763 49.4578C33.824 49.4553 34.0704 49.4211 34.3094 49.356C38.0923 48.3794 41.536 46.3865 44.2674 43.5931C44.544 43.3123 44.762 42.9793 44.9088 42.6136C45.0556 42.2478 45.1283 41.8565 45.1226 41.4625C45.1169 41.0684 45.033 40.6793 44.8757 40.318C44.7184 39.9566 44.4909 39.6301 44.2063 39.3574C44.0274 39.1858 43.8292 39.0355 43.6158 38.9095L35.0426 33.9611C34.3566 33.5619 33.5401 33.4513 32.7727 33.6537C32.0052 33.856 31.3494 34.3548 30.9495 35.0404C30.7028 35.5049 30.5702 36.0213 30.5625 36.5471Z" fill="#2EC4F3"/>
<path d="M26.3594 28.6666C26.3578 28.1423 26.5118 27.6293 26.8018 27.1925C27.0918 26.7557 27.5048 26.4147 27.9886 26.2126C28.4724 26.0105 29.0053 25.9565 29.5198 26.0573C30.0344 26.158 30.5075 26.4091 30.8793 26.7788C31.2511 27.1485 31.5049 27.6201 31.6087 28.134C31.7125 28.648 31.6615 29.1812 31.4623 29.6661C31.263 30.1511 30.9244 30.5661 30.4893 30.8586C30.0542 31.1512 29.5421 31.3081 29.0178 31.3096C28.6696 31.3107 28.3247 31.2433 28.0026 31.1111C27.6806 30.9788 27.3877 30.7845 27.1408 30.539C26.894 30.2935 26.6979 30.0018 26.5638 29.6806C26.4297 29.3593 26.3602 29.0147 26.3594 28.6666Z" fill="#23A431"/>
<path d="M27.2891 28.6586C27.2881 28.3192 27.3877 27.9871 27.5754 27.7044C27.7632 27.4216 28.0305 27.2009 28.3437 27.07C28.6569 26.9392 29.0019 26.9043 29.3349 26.9695C29.668 27.0348 29.9742 27.1973 30.2149 27.4366C30.4556 27.6759 30.6199 27.9812 30.6871 28.3139C30.7542 28.6466 30.7212 28.9917 30.5922 29.3057C30.4632 29.6196 30.244 29.8882 29.9624 30.0776C29.6807 30.2669 29.3492 30.3685 29.0098 30.3694C28.7844 30.3702 28.5611 30.3266 28.3526 30.241C28.1442 30.1554 27.9546 30.0296 27.7948 29.8707C27.635 29.7118 27.5081 29.523 27.4213 29.315C27.3345 29.107 27.2896 28.884 27.2891 28.6586Z" fill="#BFD633"/>
<path d="M28.9963 56.2815C23.5348 56.2815 18.1961 54.662 13.6551 51.6278C9.11405 48.5936 5.57477 44.281 3.48477 39.2353C1.39478 34.1896 0.847939 28.6375 1.91341 23.281C2.97888 17.9245 5.6088 13.0043 9.47061 9.14248C13.3324 5.28067 18.2527 2.65075 23.6091 1.58528C28.9656 0.519815 34.5178 1.06665 39.5635 3.15664C44.6092 5.24664 48.9218 8.78592 51.956 13.3269C54.9902 17.8679 56.6097 23.2067 56.6097 28.6681C56.6294 43.9206 44.2487 56.2815 28.9963 56.2815ZM53.4933 28.6681C53.4914 23.8257 52.0539 19.0926 49.3625 15.0671C46.671 11.0416 42.8465 7.90443 38.3723 6.0522C33.8982 4.19997 28.9754 3.71583 24.2261 4.66099C19.4769 5.60615 15.1145 7.93817 11.6904 11.3622C8.2663 14.7863 5.93428 19.1487 4.98912 23.898C4.04396 28.6472 4.5281 33.57 6.38033 38.0442C8.23256 42.5183 11.3697 46.3428 15.3952 49.0343C19.4208 51.7257 24.1539 53.1633 28.9963 53.1651C32.214 53.1677 35.4007 52.5359 38.3739 51.3057C41.3472 50.0755 44.0488 48.2712 46.3241 45.9959C48.5994 43.7206 50.4037 41.0191 51.6339 38.0458C52.864 35.0725 53.4959 31.8858 53.4933 28.6681Z" fill="url(#paint11_linear_29_2)"/>
</g>
</g>
<defs>
<linearGradient id="paint0_linear_29_2" x1="63.1054" y1="2.85071" x2="160.922" y2="10.3643" gradientUnits="userSpaceOnUse">
<stop stop-color="#0175B5"/>
<stop offset="1" stop-color="#015483"/>
</linearGradient>
<linearGradient id="paint1_linear_29_2" x1="105.13" y1="6.49529" x2="314.56" y2="48.3007" gradientUnits="userSpaceOnUse">
<stop stop-color="#0175B5"/>
<stop offset="1" stop-color="#015483"/>
</linearGradient>
<linearGradient id="paint2_linear_29_2" x1="78.6917" y1="6.49096" x2="229.542" y2="27.4006" gradientUnits="userSpaceOnUse">
<stop stop-color="#0175B5"/>
<stop offset="1" stop-color="#015483"/>
</linearGradient>
<linearGradient id="paint3_linear_29_2" x1="147.891" y1="13.2061" x2="171.984" y2="16.6045" gradientUnits="userSpaceOnUse">
<stop stop-color="#0175B5"/>
<stop offset="1" stop-color="#015483"/>
</linearGradient>
<linearGradient id="paint4_linear_29_2" x1="151.037" y1="4.80472" x2="200.293" y2="11.1696" gradientUnits="userSpaceOnUse">
<stop stop-color="#0175B5"/>
<stop offset="1" stop-color="#015483"/>
</linearGradient>
<linearGradient id="paint5_linear_29_2" x1="142.171" y1="4.80487" x2="191.474" y2="11.1796" gradientUnits="userSpaceOnUse">
<stop stop-color="#0175B5"/>
<stop offset="1" stop-color="#015483"/>
</linearGradient>
<linearGradient id="paint6_linear_29_2" x1="153.379" y1="11.2418" x2="204.85" y2="18.2104" gradientUnits="userSpaceOnUse">
<stop stop-color="#0175B5"/>
<stop offset="1" stop-color="#015483"/>
</linearGradient>
<linearGradient id="paint7_linear_29_2" x1="142.178" y1="17.6792" x2="191.432" y2="24.0524" gradientUnits="userSpaceOnUse">
<stop stop-color="#0175B5"/>
<stop offset="1" stop-color="#015483"/>
</linearGradient>
<linearGradient id="paint8_linear_29_2" x1="139.615" y1="11.234" x2="191.163" y2="18.2233" gradientUnits="userSpaceOnUse">
<stop stop-color="#0175B5"/>
<stop offset="1" stop-color="#015483"/>
</linearGradient>
<linearGradient id="paint9_linear_29_2" x1="151.037" y1="17.6719" x2="200.274" y2="24.0313" gradientUnits="userSpaceOnUse">
<stop stop-color="#0175B5"/>
<stop offset="1" stop-color="#015483"/>
</linearGradient>
<linearGradient id="paint10_linear_29_2" x1="139.578" y1="2.39551" x2="325.738" y2="28.6539" gradientUnits="userSpaceOnUse">
<stop stop-color="#0175B5"/>
<stop offset="1" stop-color="#015483"/>
</linearGradient>
<linearGradient id="paint11_linear_29_2" x1="16.515" y1="3.98171" x2="43.4104" y2="52.1395" gradientUnits="userSpaceOnUse">
<stop stop-color="#0175B5"/>
<stop offset="0.962" stop-color="#015483"/>
<stop offset="1" stop-color="#015F93"/>
</linearGradient>
<clipPath id="clip0_29_2">
<rect width="200" height="68.2445" fill="white"/>
</clipPath>
</defs>
</svg>
