<svg width="50" height="50" viewBox="0 0 50 50" fill="none" xmlns="http://www.w3.org/2000/svg">
<circle cx="25" cy="25" r="25" fill="#EDEDED"/>
<path d="M30.2156 29.293V30.6919C30.2156 33.0674 28.2266 35 25.7778 35L19.4378 34.9989C16.9903 34.9989 15 33.0672 15 30.6908V19.3081C15 16.9326 16.9891 15 19.4378 15H25.7755C28.223 15 30.2133 16.9316 30.2133 19.3081V20.5448C30.2133 21.1012 29.7605 21.554 29.2041 21.554C28.6477 21.554 28.195 21.1012 28.195 20.5448V19.3081C28.195 18.0455 27.1103 17.0183 25.7756 17.0183H19.4379C18.1032 17.0183 17.0186 18.0443 17.0186 19.3081V30.6917C17.0186 31.9543 18.1032 32.9815 19.4379 32.9815H25.7756C27.1103 32.9815 28.195 31.9554 28.195 30.6917V29.2928C28.195 28.7364 28.6477 28.2836 29.2041 28.2836C29.7605 28.2836 30.2133 28.7364 30.2133 29.2928L30.2156 29.293ZM35.4023 24.3022L32.7644 21.554C32.3781 21.1508 31.7383 21.1384 31.3374 21.5247C30.9364 21.911 30.9218 22.5485 31.3081 22.9517L32.306 23.9902H25.4894C24.933 23.9902 24.4802 24.443 24.4802 24.9994C24.4802 25.5558 24.933 26.0086 25.4894 26.0086H32.1898L31.3304 26.8443C30.9328 27.234 30.9238 27.8704 31.3135 28.2713C31.5095 28.473 31.7719 28.5766 32.0344 28.5766C32.2968 28.5766 32.5446 28.482 32.7406 28.2882L35.3784 25.7225C35.776 25.3362 35.7884 24.6987 35.4009 24.3011L35.4023 24.3022Z" fill="#0074B5"/>
</svg>
