<svg width="24" height="24" viewBox="0 0 24 24" fill="none" xmlns="http://www.w3.org/2000/svg">
<ellipse cx="5.28398" cy="5.27852" rx="4.27852" ry="4.27852" transform="rotate(90 5.28398 5.27852)" stroke="white" stroke-width="1.5" stroke-linecap="round"/>
<path d="M8.33594 2.21875H19.9491C20.9336 2.21875 21.4259 2.21875 21.811 2.38829C22.2686 2.58975 22.6341 2.95529 22.8356 3.41288C23.0051 3.79798 23.0051 4.29026 23.0051 5.27484V5.27484C23.0051 6.25941 23.0051 6.75169 22.8356 7.1368C22.6341 7.59438 22.2686 7.95992 21.811 8.16138C21.4259 8.33092 20.9336 8.33092 19.9491 8.33092H8.33594" stroke="white" stroke-width="1.5" stroke-linecap="round"/>
<ellipse cx="4.27852" cy="4.27852" rx="4.27852" ry="4.27852" transform="matrix(4.37114e-08 1 1 -4.37114e-08 14.4453 14.4375)" stroke="white" stroke-width="1.5" stroke-linecap="round"/>
<path d="M15.6719 15.6719H4.05875C3.07418 15.6719 2.58189 15.6719 2.19679 15.8414C1.7392 16.0429 1.37367 16.4084 1.17221 16.866C1.00266 17.2511 1.00266 17.7434 1.00266 18.728V18.728C1.00266 19.7125 1.00266 20.2048 1.17221 20.5899C1.37367 21.0475 1.7392 21.413 2.19679 21.6145C2.58189 21.784 3.07418 21.784 4.05875 21.784H15.6719" stroke="white" stroke-width="1.5" stroke-linecap="round"/>
</svg>
