<svg width="22" height="23" viewBox="0 0 22 23" fill="none" xmlns="http://www.w3.org/2000/svg">
<path d="M4.55565 0.584583L17.1328 7.81617L14.437 10.512L4.55565 0.584583ZM1.94994 0L13.495 11.5L1.9509 23C1.36344 22.7403 0.960938 22.1624 0.960938 21.4906C0.960938 21.4686 0.960938 21.4465 0.961896 21.4255V21.4283V1.57263C0.960938 1.55442 0.960938 1.53237 0.960938 1.51033C0.960938 0.838542 1.36344 0.260667 1.94035 0.00479167L1.9509 0.000958333L1.94994 0ZM21.0419 10.1526C21.4386 10.4468 21.6926 10.9145 21.6926 11.4406C21.6926 11.4617 21.6926 11.4818 21.6916 11.5029V11.5C21.6954 11.5412 21.6983 11.5901 21.6983 11.639C21.6983 12.1335 21.4587 12.5724 21.0888 12.8445L21.085 12.8474L18.3892 14.374L15.4701 11.5L18.3902 8.57996L21.0419 10.1526ZM4.55565 22.4154L14.438 12.488L17.1338 15.1838L4.55565 22.4154Z" fill="black"/>
</svg>
