<svg width="49" height="42" viewBox="0 0 49 42" fill="none" xmlns="http://www.w3.org/2000/svg">
<path d="M4.34258 0.968958L36.6783 2.89714C44.0648 2.71202 46.824 6.38206 47.2909 8.72673C48.1002 12.792 45.4691 15.4097 43.7923 16.2839C42.624 16.893 36.4285 16.6136 32.9213 16.6676C27.0382 17.272 27.1434 22.8233 27.6312 24.3178C27.7971 24.8261 30.5838 30.4221 31.5289 33.4603C32.4144 37.7829 28.6191 39.9396 27.7562 40.3283C23.7042 42.1541 19.8221 39.9139 18.7649 38.0822C14.0267 28.6215 4.07231 8.74836 2.16079 4.94082C0.249274 1.13329 2.81885 0.706439 4.34258 0.968958Z" stroke="white" stroke-width="1.5"/>
</svg>
