<svg width="20" height="24" viewBox="0 0 20 24" fill="none" xmlns="http://www.w3.org/2000/svg">
<path d="M16.3132 12.7632C16.286 9.73112 18.7965 8.25602 18.9113 8.18735C17.4895 6.11487 15.2857 5.83171 14.5112 5.80913C12.6603 5.6144 10.8649 6.91639 9.92198 6.91639C8.96028 6.91639 7.50832 5.82795 5.94344 5.85993C3.9297 5.89098 2.04582 7.05656 1.0126 8.86657C-1.1197 12.5571 0.47059 17.9806 2.5135 20.9637C3.53542 22.4256 4.72955 24.0559 6.29255 23.9985C7.82167 23.9364 8.39286 23.0249 10.2382 23.0249C12.0665 23.0249 12.6029 23.9985 14.1969 23.9618C15.838 23.9364 16.8713 22.4943 17.8574 21.0201C19.0384 19.3465 19.5126 17.6964 19.5315 17.6118C19.4938 17.5986 16.3452 16.3963 16.3132 12.7632ZM13.302 3.84673C14.1245 2.81849 14.6872 1.41959 14.531 0C13.3406 0.052682 11.852 0.823156 10.9947 1.82882C10.2363 2.715 9.55876 4.16752 9.73378 5.53349C11.0709 5.63321 12.4439 4.85897 13.302 3.84673Z" fill="black"/>
</svg>
