<svg width="50" height="50" viewBox="0 0 50 50" fill="none" xmlns="http://www.w3.org/2000/svg">
<ellipse cx="25" cy="24.9978" rx="25" ry="24.4481" fill="#EDEDED"/>
<path d="M15.9222 33.8327C16.5252 34.4319 17.3603 34.7756 18.2148 34.7756C18.7308 34.7756 19.2499 34.6495 19.7142 34.413C19.7819 34.3783 19.8464 34.3404 19.9077 34.3026L23.4676 32.007C23.5385 31.9597 23.6191 31.9376 23.6997 31.9376C23.7803 31.9376 23.8609 31.9597 23.9319 32.007L27.4885 34.2994C27.553 34.3404 27.6175 34.3783 27.6852 34.413C28.1495 34.6495 28.6655 34.7756 29.1846 34.7756C30.0391 34.7756 30.8742 34.4319 31.4772 33.8327C32.006 33.3061 32.3317 32.6156 32.3898 31.884C32.3994 31.7894 32.4059 31.7043 32.4059 31.6223V28.1536C32.4059 27.6333 31.9706 27.2076 31.4385 27.2076C30.9065 27.2076 30.4712 27.6333 30.4712 28.1536V31.6633C30.4647 31.6822 30.4647 31.7011 30.4615 31.72C30.4422 32.0196 30.3164 32.2876 30.1004 32.5052C29.7134 32.8899 29.075 32.9877 28.5848 32.7354L24.9992 30.424C24.2221 29.9258 23.1806 29.9258 22.4035 30.424L18.8178 32.7354C18.3277 32.9877 17.6892 32.8899 17.3023 32.5052C17.0863 32.2908 16.9605 32.0196 16.9412 31.7232C16.9412 31.7043 16.9379 31.679 16.9347 31.6601V31.6191V19.9518C16.9347 18.7346 17.9472 17.7445 19.1919 17.7445H22.4164C22.9484 17.7445 23.3837 17.3188 23.3837 16.7985C23.3837 16.2782 22.9484 15.8525 22.4164 15.8525H19.1919C16.8799 15.8525 15 17.6909 15 19.9518V31.6191C15 31.7043 15.0064 31.7894 15.0161 31.8714C15.0774 32.6124 15.3998 33.3061 15.9287 33.8296L15.9222 33.8327Z" fill="#0074B5"/>
<path d="M34.0269 18.6872H31.4473V16.1645C31.4473 15.6442 31.012 15.2185 30.4799 15.2185C29.9479 15.2185 29.5126 15.6442 29.5126 16.1645V18.6872H26.933C26.4009 18.6872 25.9656 19.1129 25.9656 19.6332C25.9656 20.1535 26.4009 20.5792 26.933 20.5792H29.5126V23.1018C29.5126 23.6221 29.9479 24.0478 30.4799 24.0478C31.012 24.0478 31.4473 23.6221 31.4473 23.1018V20.5792H34.0269C34.5589 20.5792 34.9942 20.1535 34.9942 19.6332C34.9942 19.1129 34.5589 18.6872 34.0269 18.6872Z" fill="#0074B5"/>
</svg>
