<svg xmlns="http://www.w3.org/2000/svg" fill="none" viewBox="0 0 151 48" height="48" width="151">
<path fill="black" d="M0.20059 38.0318C0.0601782 37.8913 0 37.7309 0 37.5303V18.4945C0 18.2738 0.0601782 18.1134 0.20059 17.993C0.341003 17.8727 0.501474 17.8125 0.702062 17.8125H3.41001C3.63066 17.8125 3.79113 17.8727 3.91148 17.993C4.03184 18.1134 4.09201 18.2939 4.09201 18.4945V34.7622H13.3392C13.5598 34.7622 13.7203 34.8224 13.8607 34.9628C14.0011 35.1032 14.0613 35.2837 14.0613 35.4843V37.5303C14.0613 37.7509 14.0011 37.9114 13.8607 38.0318C13.7203 38.1521 13.5397 38.2123 13.3392 38.2123H0.661942C0.501471 38.2324 0.341003 38.1722 0.20059 38.0318Z"></path>
<path fill="black" d="M17.1332 38.0318C16.9928 37.8914 16.9326 37.7309 16.9326 37.5303V18.5346C16.9326 18.314 16.9928 18.1535 17.1131 18.0131C17.2335 17.8727 17.414 17.8125 17.6146 17.8125H30.4524C30.673 17.8125 30.8335 17.8727 30.9739 18.0131C31.1143 18.1535 31.1745 18.334 31.1745 18.5346V20.4603C31.1745 20.6809 31.1143 20.8414 30.9739 20.9617C30.8335 21.0821 30.6529 21.1423 30.4524 21.1423H20.8441V26.3174H29.8105C30.0311 26.3174 30.1916 26.3776 30.332 26.498C30.4724 26.6183 30.5326 26.7988 30.5326 26.9994V28.8047C30.5326 29.0254 30.4724 29.1858 30.332 29.3062C30.1916 29.4265 30.0111 29.4867 29.8105 29.4867H20.8441V34.8224H30.673C30.8937 34.8224 31.0541 34.8825 31.1945 35.023C31.3349 35.1634 31.3951 35.3439 31.3951 35.5445V37.4701C31.3951 37.6908 31.3349 37.8512 31.1945 37.9716C31.0541 38.092 30.8736 38.1521 30.673 38.1521H17.6347C17.4341 38.2324 17.2736 38.1722 17.1332 38.0318Z"></path>
<path fill="black" d="M35.2992 38.0533C35.1588 37.9329 35.0986 37.7524 35.0986 37.5518V18.5561C35.0986 18.3355 35.1588 18.175 35.2992 18.0346C35.4396 17.8942 35.6001 17.834 35.8208 17.834H38.1275C38.5287 17.834 38.8296 18.0145 39.0101 18.3956L44.6467 28.9065L50.3435 18.3956C50.5441 18.0346 50.8249 17.834 51.2261 17.834H53.5128C53.7334 17.834 53.8939 17.8942 54.0343 18.0346C54.1747 18.175 54.2349 18.3555 54.2349 18.5561V37.5318C54.2349 37.7524 54.1747 37.9129 54.0343 38.0332C53.8939 38.1536 53.7134 38.2138 53.5128 38.2138H51.0656C50.865 38.2138 50.7045 38.1536 50.5641 38.0132C50.4237 37.8728 50.3635 37.7123 50.3635 37.5117V24.8746L46.2715 32.6775C46.0107 33.0988 45.6898 33.3194 45.2886 33.3194H44.0851C43.6839 33.3194 43.3429 33.0988 43.0821 32.6775L38.97 24.8947V37.5318C38.97 37.7324 38.9098 37.8928 38.7895 38.0332C38.6691 38.1737 38.4886 38.2338 38.288 38.2338H35.8408C35.6001 38.2338 35.4196 38.1737 35.2992 38.0533Z"></path>
<path fill="black" d="M92.3969 38.0318C92.2565 37.8913 92.1963 37.7309 92.1963 37.5303V18.4945C92.1963 18.2738 92.2565 18.1134 92.3969 17.993C92.5373 17.8727 92.6978 17.8125 92.8984 17.8125H95.6063C95.8269 17.8125 95.9874 17.8727 96.1078 17.993C96.2281 18.1134 96.2883 18.2939 96.2883 18.4945V34.7622H105.535C105.756 34.7622 105.917 34.8224 106.057 34.9628C106.197 35.1032 106.258 35.2837 106.258 35.4843V37.5303C106.258 37.7509 106.197 37.9114 106.057 38.0318C105.917 38.1521 105.736 38.2123 105.535 38.2123H92.8582C92.6978 38.2324 92.5373 38.1722 92.3969 38.0318Z"></path>
<path fill="black" d="M109.318 38.0317C109.177 37.8913 109.117 37.7309 109.117 37.5303V18.4945C109.117 18.2738 109.177 18.1134 109.318 17.993C109.458 17.8727 109.619 17.8125 109.819 17.8125H112.567C112.788 17.8125 112.948 17.8727 113.069 17.993C113.189 18.1134 113.249 18.2939 113.249 18.4945V37.5303C113.249 37.7309 113.189 37.8913 113.069 38.0317C112.948 38.1722 112.768 38.2323 112.567 38.2323H109.819C109.619 38.2323 109.458 38.1722 109.318 38.0317Z"></path>
<path fill="black" d="M122.536 38.0304C122.395 37.89 122.335 37.7295 122.335 37.5289V21.3815H116.939C116.739 21.3815 116.578 21.3214 116.438 21.181C116.297 21.0405 116.237 20.8801 116.237 20.6795V18.5131C116.237 18.2925 116.297 18.132 116.418 17.9916C116.538 17.8512 116.719 17.791 116.919 17.791H131.803C132.024 17.791 132.184 17.8512 132.325 17.9916C132.465 18.132 132.525 18.3126 132.525 18.5131V20.6795C132.525 20.8801 132.465 21.0405 132.325 21.181C132.184 21.3214 132.004 21.3815 131.803 21.3815H126.427V37.5289C126.427 37.7295 126.367 37.89 126.227 38.0304C126.086 38.1708 125.906 38.231 125.705 38.231H123.017C122.837 38.231 122.676 38.1708 122.536 38.0304Z"></path>
<path fill="black" d="M135.715 38.0318C135.575 37.8914 135.515 37.7309 135.515 37.5303V18.5346C135.515 18.314 135.575 18.1535 135.695 18.0131C135.816 17.8727 135.996 17.8125 136.197 17.8125H149.034C149.255 17.8125 149.416 17.8727 149.556 18.0131C149.696 18.1535 149.757 18.334 149.757 18.5346V20.4603C149.757 20.6809 149.696 20.8414 149.556 20.9617C149.416 21.0821 149.235 21.1423 149.034 21.1423H139.426V26.3174H148.413C148.633 26.3174 148.794 26.3776 148.934 26.498C149.075 26.6183 149.135 26.7988 149.135 26.9994V28.8047C149.135 29.0254 149.075 29.1858 148.934 29.3062C148.794 29.4265 148.613 29.4867 148.413 29.4867H139.446V34.8224H149.275C149.496 34.8224 149.656 34.8825 149.797 35.023C149.937 35.1634 149.997 35.3439 149.997 35.5445V37.4701C149.997 37.6908 149.937 37.8512 149.797 37.9716C149.656 38.092 149.476 38.1521 149.275 38.1521H136.197C136.016 38.2324 135.856 38.1722 135.715 38.0318Z"></path>
<mask height="26" width="26" y="15" x="60" maskUnits="userSpaceOnUse" style="mask-type:luminance" id="mask0_77_11104">
<path fill="white" d="M85.2908 15.3467H60.2373V40.5405H85.2908V15.3467Z"></path>
</mask>
<g mask="url(#mask0_77_11104)">
<path fill="#2EC4F3" d="M80.9207 37.309C78.5938 39.5756 75.3443 40.6989 71.7538 40.4983C68.3438 40.2977 65.1544 38.9136 62.988 36.6871C60.8618 34.5007 59.9391 31.7326 60.3202 28.7037C60.6813 25.8554 62.2258 22.9669 64.6529 20.6C69.788 15.6053 78.1726 13.2384 82.5053 17.6714C86.818 22.1044 85.9956 32.3745 80.9207 37.309ZM65.1544 21.1215C60.3001 25.8554 59.5981 32.194 63.5096 36.2057C67.5414 40.3378 75.6452 41.4812 80.4393 36.8075C82.6457 34.6612 84.1702 31.1308 84.5112 27.3798C84.8522 23.5285 83.9496 20.1988 82.0039 18.1929C80.1384 16.2672 77.2298 15.6254 73.8399 16.3675C70.7709 17.0295 67.5213 18.7947 65.1544 21.1215Z"></path>
</g>
<mask height="26" width="26" y="14" x="61" maskUnits="userSpaceOnUse" style="mask-type:luminance" id="mask1_77_11104">
<path fill="white" d="M86.4988 14.9443H61.2246V39.5967H86.4988V14.9443Z"></path>
</mask>
<g mask="url(#mask1_77_11104)">
<path fill="#BFD634" d="M83.6669 35.7241C79.0533 40.2374 69.4451 40.9796 64.631 37.028C62.6853 35.4433 61.5419 33.0563 61.2812 30.1478C60.9402 26.2764 62.3042 22.0239 64.8517 19.0351C66.9779 16.5278 69.726 15.1237 72.7548 14.9431C75.6233 14.7827 78.5519 15.8057 80.979 17.7915C84.0279 20.2989 86.1341 24.1702 86.4751 27.8611C86.7158 30.6091 85.9736 33.0964 84.3088 35.0421C84.0881 35.2828 83.8875 35.5035 83.6669 35.7241ZM66.1755 18.654C65.8947 18.9148 65.6339 19.1956 65.3732 19.4965C62.9461 22.3449 61.6422 26.3968 61.9632 30.0876C62.2039 32.7955 63.267 35.002 65.0522 36.4663C67.2387 38.2716 70.7891 39.1341 74.5401 38.7931C78.4115 38.4321 81.7412 36.9076 83.727 34.6008C85.2515 32.7955 85.9536 30.5088 85.7329 27.9413C85.412 24.431 83.4262 20.7602 80.4976 18.3532C75.9242 14.5821 70.1673 14.7426 66.1755 18.654Z"></path>
</g>
<mask height="30" width="26" y="12" x="61" maskUnits="userSpaceOnUse" style="mask-type:luminance" id="mask2_77_11104">
<path fill="white" d="M86.1152 12.5811H61.7637V41.265H86.1152V12.5811Z"></path>
</mask>
<g mask="url(#mask2_77_11104)">
<path fill="#2EC4F3" d="M80.3414 38.2761C78.3957 40.1817 76.0689 41.3451 73.5615 41.2649C70.8736 41.1847 68.1456 39.7003 65.899 37.0926C62.9704 33.7027 61.4058 29.1493 61.8471 25.2178C62.2282 21.8078 64.0937 18.5783 67.1226 16.111C69.991 13.7641 73.4813 12.4804 76.7107 12.5807C79.3986 12.6609 81.7054 13.724 83.3703 15.6497C85.5166 18.1169 86.4794 21.888 86.0181 26.0001C85.5166 30.5936 83.3903 35.3074 80.3414 38.2761ZM73.5816 40.5428C76.3697 40.623 79.1579 38.9782 81.4246 35.9292C83.4706 33.1611 84.9148 29.4301 85.2959 25.9198C85.7372 22.0083 84.8346 18.4379 82.8287 16.111C81.2842 14.3459 79.1579 13.363 76.6706 13.2827C70.653 13.1022 63.3315 18.1972 62.5492 25.278C62.128 29.029 63.6123 33.3617 66.4206 36.6112C68.5668 39.0785 71.1143 40.4625 73.5816 40.5428Z"></path>
</g>
<mask height="28" width="27" y="14" x="59" maskUnits="userSpaceOnUse" style="mask-type:luminance" id="mask3_77_11104">
<path fill="white" d="M85.5664 14.584H59.9912V41.8841H85.5664V14.584Z"></path>
</mask>
<g mask="url(#mask3_77_11104)">
<path fill="#BFD634" d="M81.1496 37.89C79.1838 39.7956 76.6162 41.0994 73.6876 41.641C70.1372 42.2829 66.6068 41.6611 64.0192 39.936C61.9531 38.5519 60.6091 36.526 60.1678 34.0989C59.546 30.729 60.6493 26.7373 63.1968 23.1668C67.71 16.8282 76.0145 12.355 81.1897 15.8051C83.2357 17.1691 84.6799 19.6966 85.2817 22.9261C86.1242 27.5396 85.1012 32.7349 82.654 36.1649C82.1926 36.7667 81.6912 37.3484 81.1496 37.89ZM66.346 20.5792C65.3832 21.5019 64.5206 22.5249 63.7785 23.5679C61.3313 26.998 60.2681 30.7891 60.8699 33.9585C61.2911 36.2051 62.5147 38.0705 64.4203 39.3342C69.2546 42.5637 77.8198 41.7012 82.0723 35.7236C84.3991 32.434 85.382 27.4594 84.5796 23.0264C84.018 19.9774 82.674 17.6104 80.7885 16.3668C78.5419 14.8824 75.4528 14.9426 72.0428 16.5273C70.0569 17.47 68.0711 18.8942 66.346 20.5792Z"></path>
</g>
<mask height="25" width="26" y="15" x="59" maskUnits="userSpaceOnUse" style="mask-type:luminance" id="mask4_77_11104">
<path fill="white" d="M84.448 15.8867H59.2539V39.175H84.448V15.8867Z"></path>
</mask>
<g mask="url(#mask4_77_11104)">
<path fill="#2EC4F3" d="M80.9587 36.43C79.3339 38.0147 77.2678 38.9374 74.9009 39.1379C72.0926 39.3586 69.0838 38.4961 66.4159 36.6707C62.8053 34.2236 60.0572 30.292 59.4153 26.6414C59.0141 24.3346 59.4354 22.1883 60.679 20.4833C64.2295 15.5689 74.2389 14.3052 79.7953 18.0763C82.1221 19.6609 83.7068 22.2084 84.2483 25.2573C84.8501 28.7074 84.0678 32.3581 82.1421 35.046C81.7811 35.5675 81.3799 36.0288 80.9587 36.43ZM61.2407 20.9045C60.0973 22.4892 59.7162 24.3747 60.0973 26.521C60.7192 29.9912 63.3469 33.7421 66.797 36.089C71.5911 39.3385 77.1074 39.1781 80.4973 35.8684C80.8784 35.5073 81.2194 35.0861 81.5604 34.6448C83.3858 32.1174 84.128 28.6673 83.5463 25.3977C83.0448 22.5293 81.5604 20.1423 79.3941 18.678C76.9669 17.0332 73.3363 16.3111 69.6655 16.7323C65.9345 17.1536 62.8454 18.678 61.2407 20.9045Z"></path>
</g>
<mask height="29" width="29" y="13" x="59" maskUnits="userSpaceOnUse" style="mask-type:luminance" id="mask5_77_11104">
<path fill="white" d="M87.5804 13.3604H59.3574V41.3623H87.5804V13.3604Z"></path>
</mask>
<g mask="url(#mask5_77_11104)">
<path fill="#BFD634" d="M84.1519 37.9326C81.8452 40.1792 78.6157 41.3827 75.0051 41.3626C71.4346 41.3426 67.5632 40.0789 64.6346 37.9727C61.3249 35.5857 59.4394 32.3362 59.3591 28.8459C59.2789 25.2755 61.004 21.4041 64.093 18.2549C67.1219 15.1658 70.9532 13.3405 74.3431 13.3605C77.713 13.3806 80.9826 15.1658 83.5702 18.3752C86.0174 21.4041 87.4817 25.2755 87.5619 29.0064C87.6422 32.4966 86.5189 35.5255 84.3124 37.7721C84.2723 37.8122 84.2121 37.8724 84.1519 37.9326ZM60.0812 28.8259C60.1615 32.0954 61.9267 35.1444 65.0559 37.391C67.8641 39.4169 71.5951 40.6205 75.0251 40.6405C78.5354 40.6606 81.6446 39.457 83.831 37.2506C85.8971 35.1444 86.9602 32.296 86.8599 29.0064C86.7796 25.4359 85.3755 21.725 83.0286 18.8165C80.5814 15.7676 77.4924 14.0826 74.3431 14.0626C71.1538 14.0425 67.503 15.7876 64.6146 18.7363C61.6458 21.7652 60.001 25.4359 60.0812 28.8259Z"></path>
</g>
<path fill="#BFD633" d="M72.3535 0C70.9093 0.240705 69.5854 0.942757 68.5223 1.96575C67.6798 2.78816 67.0179 3.81115 66.5966 4.95449C65.5937 7.72259 66.2155 10.8317 68.1612 12.7975C69.6054 12.5567 70.9293 11.8547 71.9925 10.8317C72.8349 10.0093 73.4969 8.9863 73.9181 7.84295C74.921 5.07485 74.2992 1.98581 72.3535 0Z"></path>
<mask height="5" width="3" y="8" x="66" maskUnits="userSpaceOnUse" style="mask-type:luminance" id="mask6_77_11104">
<path fill="white" d="M68.1988 8.34766H66.1729V12.8007H68.1988V8.34766Z"></path>
</mask>
<g mask="url(#mask6_77_11104)">
<path fill="#2EC4F3" d="M66.166 8.34375C66.3064 10.0287 67.0085 11.6133 68.1719 12.7968C68.2722 11.1319 67.51 9.46704 66.166 8.34375Z"></path>
</g>
<path fill="#2EC4F3" d="M65.256 7.70246C63.4708 6.71958 61.2844 6.71958 59.6396 7.76264C59.5393 9.68828 60.5623 11.5939 62.3074 12.677C63.8519 13.6599 65.7575 13.8405 67.3622 13.2186C65.9982 11.7343 65.256 9.74846 65.256 7.70246Z"></path>
<path fill="black" d="M92.0674 42.2642V41.7627H94.8155V42.2642H93.7122V46.7975H93.1907V42.2642H92.0674Z"></path>
<path fill="black" d="M91.917 41.6123H94.9651V42.4138H93.8618V46.9471H93.0403V42.4138H91.917V41.6123ZM92.217 41.9123V42.1138H93.3403V46.6471H93.5618V42.1138H94.6651V41.9123H92.217Z" clip-rule="evenodd" fill-rule="evenodd"></path>
<path fill="black" d="M96.0801 41.7627H98.9686V42.2642H96.5816V43.8288H98.9485V44.3302H96.5816V46.296H98.9485V46.7975H96.0801V41.7627Z"></path>
<path fill="black" d="M95.9297 41.6123H99.1182V42.4138H96.7312V43.6784H99.0981V44.4798H96.7312V46.1456H99.0981V46.9471H95.9297V41.6123ZM96.2297 41.9123V46.6471H98.7981V46.4456H96.4312V44.1798H98.7981V43.9784H96.4312V42.1138H98.8182V41.9123H96.2297Z" clip-rule="evenodd" fill-rule="evenodd"></path>
<path fill="black" d="M105.047 42.7032L104.646 43.0041C104.426 42.7233 104.165 42.5026 103.864 42.3622C103.563 42.2218 103.222 42.1416 102.861 42.1416C102.46 42.1416 102.099 42.2419 101.738 42.4224C101.397 42.623 101.136 42.8637 100.935 43.2047C100.755 43.5256 100.654 43.8867 100.654 44.3079C100.654 44.9297 100.855 45.4312 101.276 45.8524C101.698 46.2536 102.219 46.4742 102.861 46.4742C103.563 46.4742 104.145 46.1934 104.626 45.6518L105.027 45.9527C104.787 46.2737 104.466 46.5144 104.085 46.6949C103.703 46.8754 103.282 46.9557 102.821 46.9557C101.938 46.9557 101.256 46.6548 100.735 46.0731C100.313 45.5716 100.093 44.9899 100.093 44.2879C100.093 43.5457 100.354 42.9239 100.875 42.4224C101.397 41.9209 102.039 41.6602 102.821 41.6602C103.282 41.6602 103.723 41.7605 104.085 41.941C104.486 42.1015 104.807 42.3622 105.047 42.7032Z"></path>
<path fill="black" d="M102.82 41.8098C102.075 41.8098 101.471 42.0565 100.979 42.5301C100.487 43.0025 100.242 43.5849 100.242 44.2875C100.242 44.9533 100.45 45.5003 100.848 45.9744C101.338 46.5206 101.978 46.8053 102.82 46.8053C103.264 46.8053 103.663 46.7282 104.02 46.5589C104.335 46.4099 104.602 46.2202 104.812 45.979L104.644 45.8525C104.154 46.3575 103.564 46.6239 102.861 46.6239C102.18 46.6239 101.622 46.3884 101.172 45.9607L101.17 45.9581C100.719 45.5072 100.504 44.9668 100.504 44.3075C100.504 43.8609 100.611 43.4744 100.804 43.1307L100.806 43.1282C101.021 42.7619 101.302 42.5041 101.661 42.2927L101.67 42.2875C102.048 42.0985 102.432 41.9912 102.861 41.9912C103.244 41.9912 103.607 42.0764 103.927 42.2259C104.21 42.358 104.458 42.5545 104.67 42.798L104.836 42.6732C104.624 42.412 104.355 42.2105 104.028 42.0799L104.017 42.0752C103.679 41.9062 103.261 41.8098 102.82 41.8098ZM100.771 42.3139C101.321 41.7846 102.001 41.5098 102.82 41.5098C103.3 41.5098 103.763 41.6134 104.146 41.8036C104.572 41.9754 104.914 42.2541 105.17 42.6163L105.254 42.7354L104.618 43.2117L104.528 43.0964C104.319 42.8306 104.076 42.6265 103.8 42.4977C103.519 42.3664 103.199 42.2912 102.861 42.2912C102.488 42.2912 102.151 42.3834 101.809 42.5539C101.489 42.7428 101.25 42.9655 101.065 43.2791C100.898 43.577 100.804 43.9123 100.804 44.3075C100.804 44.8912 100.99 45.3534 101.381 45.7447C101.774 46.1185 102.258 46.3239 102.861 46.3239C103.516 46.3239 104.058 46.0643 104.514 45.5518L104.605 45.4486L105.237 45.9223L105.147 46.0423C104.889 46.3865 104.547 46.6413 104.148 46.8301C103.743 47.0219 103.299 47.1053 102.82 47.1053C101.899 47.1053 101.175 46.7888 100.623 46.1728L100.619 46.1692C100.175 45.6407 99.9424 45.0248 99.9424 44.2875C99.9424 43.5057 100.219 42.8444 100.771 42.3139Z" clip-rule="evenodd" fill-rule="evenodd"></path>
<path fill="black" d="M106.569 41.7627H107.071V43.8689H109.618V41.7627H110.12V46.7975H109.618V44.3703H107.071V46.7975H106.569V41.7627Z"></path>
<path fill="black" d="M106.419 41.6123H107.22V43.7185H109.468V41.6123H110.269V46.9471H109.468V44.52H107.22V46.9471H106.419V41.6123ZM106.719 41.9123V46.6471H106.92V44.22H109.768V46.6471H109.969V41.9123H109.768V44.0185H106.92V41.9123H106.719Z" clip-rule="evenodd" fill-rule="evenodd"></path>
<path fill="black" d="M111.886 46.7975V41.7627H111.986L115.336 45.614V41.7627H115.837V46.7975H115.717L112.407 42.9863V46.7975H111.886Z"></path>
<path fill="black" d="M111.735 41.6123H112.054L115.185 45.2126V41.6123H115.987V46.9471H115.648L112.557 43.3874V46.9471H111.735V41.6123ZM112.035 42.048V46.6471H112.257V42.5844L115.687 46.5342V41.9123H115.485V46.0146L112.035 42.048Z" clip-rule="evenodd" fill-rule="evenodd"></path>
<path fill="black" d="M119.972 41.6445C120.734 41.6445 121.376 41.9053 121.878 42.4068C122.399 42.9082 122.64 43.5501 122.64 44.2923C122.64 45.0345 122.379 45.6563 121.878 46.1578C121.356 46.6793 120.734 46.92 120.012 46.92C119.27 46.92 118.628 46.6592 118.126 46.1578C117.605 45.6563 117.364 45.0345 117.364 44.3124C117.364 43.8309 117.485 43.3896 117.725 42.9684C117.966 42.5472 118.287 42.2262 118.688 42.0056C119.069 41.7649 119.511 41.6445 119.972 41.6445ZM120.012 42.1259C119.631 42.1259 119.29 42.2262 118.949 42.4068C118.608 42.6074 118.347 42.8681 118.167 43.1891C117.986 43.51 117.886 43.8911 117.886 44.2923C117.886 44.8941 118.086 45.3955 118.508 45.7967C118.929 46.2179 119.43 46.4185 120.012 46.4185C120.393 46.4185 120.754 46.3182 121.095 46.1377C121.436 45.9572 121.677 45.6964 121.878 45.3554C122.058 45.0345 122.158 44.6534 122.158 44.2522C122.158 43.851 122.058 43.4899 121.878 43.169C121.697 42.8481 121.436 42.5873 121.095 42.3867C120.734 42.2262 120.373 42.1259 120.012 42.1259Z"></path>
<path fill="black" d="M119.972 41.7941C119.537 41.7941 119.123 41.9075 118.768 42.132L118.76 42.1369L118.76 42.1366C118.385 42.3432 118.083 42.6437 117.855 43.0424C117.627 43.4417 117.514 43.8574 117.514 44.312C117.514 44.9969 117.74 45.5785 118.23 46.0493L118.232 46.0513L118.232 46.0513C118.704 46.5234 119.307 46.7696 120.012 46.7696C120.696 46.7696 121.279 46.5433 121.771 46.0513C122.244 45.5784 122.489 44.9948 122.489 44.2919C122.489 43.585 122.262 42.9841 121.773 42.5145L121.771 42.5125L121.771 42.5124C121.299 42.0407 120.696 41.7941 119.972 41.7941ZM118.611 41.876C119.017 41.6207 119.485 41.4941 119.972 41.4941C120.771 41.4941 121.451 41.7687 121.982 42.2993C122.536 42.8325 122.789 43.515 122.789 44.2919C122.789 45.0733 122.513 45.7335 121.983 46.2634C121.432 46.8145 120.771 47.0696 120.012 47.0696C119.232 47.0696 118.552 46.7946 118.021 46.2645C117.468 45.7325 117.214 45.0708 117.214 44.312C117.214 43.8037 117.341 43.3368 117.595 42.8936C117.847 42.4513 118.187 42.1106 118.611 41.876ZM118.878 42.2738C119.237 42.084 119.602 41.9756 120.012 41.9756C120.4 41.9756 120.783 42.0835 121.156 42.2492L121.164 42.2527L121.171 42.257C121.533 42.47 121.813 42.7493 122.008 43.0951C122.201 43.4381 122.308 43.8245 122.308 44.2518C122.308 44.6777 122.202 45.0843 122.008 45.4286L122.006 45.4311L122.006 45.4311C121.795 45.7899 121.536 46.0734 121.165 46.2699C120.805 46.4604 120.42 46.5681 120.012 46.5681C119.392 46.5681 118.852 46.3527 118.402 45.9037C117.95 45.4721 117.735 44.9306 117.735 44.2919C117.735 43.866 117.842 43.4594 118.035 43.1151C118.23 42.7694 118.51 42.4901 118.872 42.2771L118.878 42.2737L118.878 42.2738ZM119.022 42.5374C118.703 42.7253 118.463 42.967 118.297 43.2622C118.13 43.5598 118.035 43.9155 118.035 44.2919C118.035 44.8561 118.222 45.3172 118.611 45.6877L118.613 45.6902L118.613 45.6903C119.006 46.0828 119.469 46.2681 120.012 46.2681C120.365 46.2681 120.703 46.1753 121.025 46.0048C121.335 45.8404 121.557 45.6027 121.747 45.2802C121.914 44.9829 122.008 44.6277 122.008 44.2518C122.008 43.8767 121.914 43.541 121.746 43.2421C121.581 42.9483 121.342 42.7075 121.026 42.5199C120.68 42.3668 120.343 42.2756 120.012 42.2756C119.66 42.2756 119.344 42.3671 119.022 42.5374Z" clip-rule="evenodd" fill-rule="evenodd"></path>
<path fill="black" d="M124.204 41.7627H124.706V46.3161H126.631V46.7975H124.204V41.7627Z"></path>
<path fill="black" d="M124.054 41.6123H124.855V46.1657H126.781V46.9471H124.054V41.6123ZM124.354 41.9123V46.6471H126.481V46.4657H124.555V41.9123H124.354Z" clip-rule="evenodd" fill-rule="evenodd"></path>
<path fill="black" d="M130.342 41.6445C131.104 41.6445 131.746 41.9053 132.248 42.4068C132.769 42.9082 133.01 43.5501 133.01 44.2923C133.01 45.0345 132.749 45.6563 132.248 46.1578C131.726 46.6793 131.104 46.92 130.382 46.92C129.64 46.92 128.998 46.6592 128.497 46.1578C127.975 45.6563 127.734 45.0345 127.734 44.3124C127.734 43.8309 127.855 43.3896 128.095 42.9684C128.336 42.5472 128.657 42.2262 129.058 42.0056C129.439 41.7649 129.881 41.6445 130.342 41.6445ZM130.362 42.1259C129.981 42.1259 129.64 42.2262 129.299 42.4068C128.958 42.6074 128.697 42.8681 128.517 43.1891C128.336 43.51 128.236 43.8911 128.236 44.2923C128.236 44.8941 128.436 45.3955 128.858 45.7967C129.279 46.2179 129.78 46.4185 130.362 46.4185C130.743 46.4185 131.104 46.3182 131.445 46.1377C131.786 45.9572 132.027 45.6964 132.228 45.3554C132.408 45.0345 132.508 44.6534 132.508 44.2522C132.508 43.851 132.408 43.4899 132.228 43.169C132.047 42.8481 131.786 42.5873 131.445 42.3867C131.104 42.2262 130.743 42.1259 130.362 42.1259Z"></path>
<path fill="black" d="M130.342 41.7941C129.907 41.7941 129.493 41.9075 129.138 42.132L129.13 42.1369L129.13 42.1366C128.755 42.3432 128.453 42.6437 128.225 43.0424C127.997 43.4417 127.884 43.8574 127.884 44.312C127.884 44.9969 128.111 45.5785 128.6 46.0493L128.602 46.0513L128.602 46.0513C129.074 46.5234 129.678 46.7696 130.382 46.7696C131.066 46.7696 131.649 46.5433 132.141 46.0513C132.614 45.5784 132.859 44.9948 132.859 44.2919C132.859 43.585 132.632 42.9841 132.143 42.5145L132.141 42.5125L132.141 42.5124C131.669 42.0407 131.066 41.7941 130.342 41.7941ZM128.982 41.876C129.387 41.6207 129.855 41.4941 130.342 41.4941C131.141 41.4941 131.821 41.7687 132.352 42.2993C132.906 42.8325 133.159 43.515 133.159 44.2919C133.159 45.0733 132.883 45.7335 132.353 46.2634C131.802 46.8145 131.142 47.0696 130.382 47.0696C129.602 47.0696 128.922 46.7946 128.391 46.2645C127.838 45.7325 127.584 45.0708 127.584 44.312C127.584 43.8037 127.712 43.3368 127.965 42.8936C128.218 42.4513 128.557 42.1106 128.982 41.876ZM129.228 42.2738C129.587 42.084 129.952 41.9756 130.362 41.9756C130.77 41.9756 131.153 42.083 131.509 42.2506L131.521 42.2565L131.521 42.257C131.883 42.47 132.163 42.7493 132.358 43.0951C132.551 43.4381 132.658 43.8245 132.658 44.2518C132.658 44.6777 132.552 45.0843 132.358 45.4286L132.356 45.4311L132.356 45.4311C132.145 45.7899 131.886 46.0734 131.515 46.2699C131.155 46.4604 130.77 46.5681 130.362 46.5681C129.742 46.5681 129.202 46.3527 128.753 45.9037C128.3 45.4721 128.085 44.9306 128.085 44.2919C128.085 43.866 128.192 43.4594 128.386 43.1151C128.58 42.7694 128.86 42.4901 129.223 42.2771L129.228 42.2737L129.228 42.2738ZM129.372 42.5374C129.053 42.7253 128.813 42.967 128.647 43.2622C128.48 43.5598 128.385 43.9155 128.385 44.2919C128.385 44.8561 128.572 45.3172 128.961 45.6877L128.963 45.6902L128.963 45.6903C129.356 46.0828 129.819 46.2681 130.362 46.2681C130.715 46.2681 131.053 46.1753 131.375 46.0048C131.685 45.8404 131.907 45.6027 132.097 45.2802C132.264 44.9829 132.358 44.6277 132.358 44.2518C132.358 43.8767 132.265 43.541 132.096 43.2421C131.931 42.9478 131.692 42.7068 131.375 42.5191C131.051 42.3675 130.714 42.2756 130.362 42.2756C130.01 42.2756 129.694 42.3671 129.372 42.5374Z" clip-rule="evenodd" fill-rule="evenodd"></path>
<path fill="black" d="M139.41 42.6059L139.029 42.967C138.748 42.6862 138.447 42.4856 138.106 42.3452C137.765 42.2047 137.445 42.1245 137.124 42.1245C136.722 42.1245 136.361 42.2248 136 42.4053C135.639 42.6059 135.358 42.8667 135.178 43.1876C134.977 43.5286 134.877 43.8696 134.877 44.2307C134.877 44.6118 134.977 44.9729 135.178 45.3139C135.378 45.6549 135.659 45.9156 136.02 46.1162C136.381 46.3168 136.763 46.4171 137.204 46.4171C137.725 46.4171 138.167 46.2767 138.508 45.9758C138.869 45.6749 139.069 45.3139 139.15 44.8325H137.545V44.351H139.711C139.711 45.1333 139.471 45.7552 139.009 46.1965C138.548 46.6578 137.946 46.8784 137.184 46.8784C136.261 46.8784 135.519 46.5575 134.977 45.9357C134.556 45.4543 134.355 44.8926 134.355 44.2507C134.355 43.7693 134.476 43.328 134.717 42.9269C134.957 42.5257 135.278 42.2047 135.699 41.964C136.121 41.7233 136.582 41.623 137.124 41.623C137.545 41.623 137.946 41.7033 138.327 41.8437C138.688 42.0242 139.069 42.2649 139.41 42.6059Z"></path>
<path fill="black" d="M137.123 41.7727C136.601 41.7727 136.167 41.869 135.773 42.0939C135.375 42.3215 135.073 42.624 134.845 43.0037C134.618 43.3808 134.505 43.7953 134.505 44.2504C134.505 44.8577 134.694 45.3838 135.09 45.8365C135.6 46.422 136.299 46.7281 137.183 46.7281C137.914 46.7281 138.475 46.5179 138.903 46.09L138.905 46.0876C139.302 45.7078 139.529 45.1785 139.558 44.5007H137.694V44.6821H139.326L139.297 44.8567C139.211 45.3707 138.994 45.7643 138.605 46.0893C138.231 46.4187 137.752 46.5667 137.203 46.5667C136.737 46.5667 136.331 46.4602 135.947 46.2469C135.566 46.0349 135.264 45.7562 135.048 45.3895C134.835 45.0264 134.727 44.6392 134.727 44.2303C134.727 43.8397 134.836 43.4731 135.047 43.1124C135.244 42.7635 135.547 42.4849 135.927 42.2738L135.933 42.2707C136.311 42.0816 136.695 41.9741 137.123 41.9741C137.47 41.9741 137.811 42.0608 138.163 42.2061C138.481 42.3368 138.765 42.517 139.029 42.7594L139.192 42.605C138.898 42.3359 138.577 42.1366 138.267 41.9812C137.903 41.848 137.522 41.7727 137.123 41.7727ZM135.625 41.8334C136.074 41.5769 136.562 41.4727 137.123 41.4727C137.564 41.4727 137.983 41.5567 138.379 41.7025L138.386 41.7054L138.394 41.7091C138.765 41.8945 139.16 42.1439 139.516 42.4995L139.625 42.6084L139.026 43.1759L138.923 43.0727C138.655 42.8053 138.371 42.6161 138.049 42.4835C137.72 42.3479 137.419 42.2741 137.123 42.2741C136.75 42.2741 136.413 42.3666 136.07 42.5376C135.73 42.7272 135.472 42.9692 135.308 43.2608L135.307 43.2633C135.118 43.5843 135.027 43.8993 135.027 44.2303C135.027 44.5836 135.119 44.9186 135.307 45.2374C135.492 45.5527 135.752 45.7955 136.093 45.9847C136.431 46.1727 136.787 46.2667 137.203 46.2667C137.697 46.2667 138.1 46.1343 138.408 45.8629L138.411 45.8601C138.698 45.6208 138.874 45.343 138.965 44.9821H137.394V44.2007H139.861V44.3507C139.861 45.1644 139.61 45.8282 139.114 46.3033C138.619 46.7973 137.977 47.0281 137.183 47.0281C136.222 47.0281 135.437 46.6919 134.864 46.0338C134.418 45.5238 134.205 44.9266 134.205 44.2504C134.205 43.7426 134.332 43.2745 134.588 42.8493C134.841 42.4266 135.181 42.0872 135.625 41.8334Z" clip-rule="evenodd" fill-rule="evenodd"></path>
<path fill="black" d="M141.639 41.7627H141.138V46.7975H141.639V41.7627Z"></path>
<path fill="black" d="M140.987 41.6123H141.789V46.9471H140.987V41.6123ZM141.287 41.9123V46.6471H141.489V41.9123H141.287Z" clip-rule="evenodd" fill-rule="evenodd"></path>
<path fill="black" d="M143.305 41.7627H146.193V42.2642H143.806V43.8288H146.173V44.3302H143.806V46.296H146.173V46.7975H143.305V41.7627Z"></path>
<path fill="black" d="M143.154 41.6123H146.343V42.4138H143.956V43.6784H146.323V44.4798H143.956V46.1456H146.323V46.9471H143.154V41.6123ZM143.454 41.9123V46.6471H146.023V46.4456H143.656V44.1798H146.023V43.9784H143.656V42.1138H146.043V41.9123H143.454Z" clip-rule="evenodd" fill-rule="evenodd"></path>
<path fill="black" d="M147.071 45.8554L147.493 45.5947C147.793 46.1563 148.134 46.4171 148.536 46.4171C148.696 46.4171 148.857 46.377 149.017 46.2967C149.177 46.2165 149.278 46.1162 149.358 45.9758C149.438 45.8354 149.478 45.695 149.478 45.5546C149.478 45.3941 149.418 45.2136 149.298 45.0531C149.137 44.8324 148.857 44.5516 148.435 44.2507C148.014 43.9298 147.753 43.7091 147.653 43.5687C147.472 43.328 147.392 43.0673 147.392 42.8065C147.392 42.5859 147.452 42.3853 147.553 42.2047C147.653 42.0242 147.813 41.8838 147.994 41.7835C148.175 41.6832 148.395 41.623 148.616 41.623C148.857 41.623 149.077 41.6832 149.278 41.8036C149.478 41.9239 149.699 42.1446 149.94 42.4454L149.539 42.7664C149.358 42.5056 149.198 42.3452 149.057 42.2649C148.917 42.1847 148.776 42.1446 148.616 42.1446C148.415 42.1446 148.255 42.2048 148.114 42.3251C147.994 42.4455 147.914 42.6059 147.914 42.7865C147.914 42.8867 147.934 43.0071 147.974 43.1074C148.014 43.2077 148.094 43.328 148.215 43.4484C148.275 43.5086 148.495 43.6891 148.857 43.9499C149.298 44.2708 149.599 44.5516 149.759 44.8124C149.92 45.0731 150 45.3138 150 45.5746C150 45.9357 149.859 46.2566 149.579 46.5174C149.298 46.7781 148.957 46.9185 148.576 46.9185C148.275 46.9185 147.994 46.8383 147.753 46.6778C147.493 46.5174 147.272 46.2365 147.071 45.8554Z"></path>
<path fill="black" d="M148.615 41.7727C148.421 41.7727 148.225 41.8261 148.066 41.9142C147.904 42.0046 147.767 42.127 147.683 42.2772C147.594 42.4382 147.542 42.6139 147.542 42.8061C147.542 43.0344 147.612 43.2636 147.773 43.4783L147.775 43.4811C147.814 43.5359 147.892 43.6165 148.022 43.7282C148.148 43.8377 148.315 43.9705 148.524 44.1296C148.953 44.4361 149.246 44.7269 149.418 44.9636C149.555 45.1468 149.628 45.358 149.628 45.5542C149.628 45.7244 149.579 45.8902 149.488 46.0498C149.393 46.2151 149.272 46.3366 149.084 46.4305C148.905 46.5199 148.722 46.5667 148.535 46.5667C148.093 46.5667 147.735 46.2979 147.439 45.8039L147.271 45.9076C147.446 46.2125 147.63 46.4256 147.832 46.5497L147.836 46.5526C148.05 46.6954 148.302 46.7682 148.575 46.7682C148.917 46.7682 149.222 46.6434 149.476 46.4071C149.728 46.1736 149.85 45.892 149.85 45.5742C149.85 45.3478 149.781 45.1341 149.631 44.8906C149.487 44.6559 149.206 44.3892 148.768 44.0709C148.408 43.8108 148.178 43.6239 148.108 43.5541C147.977 43.4232 147.884 43.2863 147.834 43.1627C147.786 43.0428 147.763 42.9033 147.763 42.7861C147.763 42.5592 147.864 42.3621 148.008 42.2186L148.016 42.2105C148.185 42.0661 148.38 41.9942 148.615 41.9942C148.804 41.9942 148.97 42.0421 149.131 42.1343C149.271 42.2143 149.416 42.3529 149.567 42.5507L149.727 42.4228C149.529 42.1881 149.353 42.0236 149.2 41.9318C149.024 41.8259 148.83 41.7727 148.615 41.7727ZM147.921 41.652C148.123 41.5396 148.369 41.4727 148.615 41.4727C148.883 41.4727 149.13 41.5398 149.355 41.6746C149.579 41.809 149.813 42.0467 150.056 42.3514L150.15 42.4685L149.506 42.9835L149.415 42.8514C149.239 42.5979 149.094 42.4587 148.982 42.3948C148.863 42.3265 148.748 42.2942 148.615 42.2942C148.452 42.2942 148.327 42.3411 148.216 42.4348C148.121 42.5314 148.063 42.6537 148.063 42.7861C148.063 42.8694 148.081 42.9706 148.113 43.0513C148.144 43.1283 148.211 43.2321 148.32 43.3419C148.371 43.3925 148.582 43.5665 148.944 43.8279C149.389 44.1514 149.71 44.4466 149.887 44.7334C150.058 45.0114 150.15 45.2791 150.15 45.5742C150.15 45.9785 149.991 46.3388 149.68 46.6269C149.373 46.9121 148.996 47.0682 148.575 47.0682C148.248 47.0682 147.939 46.9809 147.672 46.8038C147.379 46.6227 147.144 46.3152 146.938 45.9249L146.873 45.8011L147.549 45.3827L147.624 45.5234C147.914 46.0645 148.215 46.2667 148.535 46.2667C148.67 46.2667 148.807 46.2332 148.95 46.1622C149.083 46.0956 149.161 46.0165 149.227 45.901C149.297 45.7797 149.328 45.6647 149.328 45.5542C149.328 45.4297 149.281 45.2802 149.177 45.1427L149.176 45.1409C149.028 44.9368 148.76 44.6668 148.348 44.3724L148.344 44.3697C148.132 44.2086 147.959 44.0709 147.825 43.9551C147.694 43.8418 147.593 43.7423 147.532 43.657C147.332 43.3907 147.242 43.0988 147.242 42.8061C147.242 42.557 147.31 42.3316 147.421 42.1315C147.538 41.9206 147.722 41.7622 147.921 41.652Z" clip-rule="evenodd" fill-rule="evenodd"></path>
</svg>
