<svg width="50" height="50" viewBox="0 0 50 50" fill="none" xmlns="http://www.w3.org/2000/svg">
<circle cx="25" cy="25" r="25" fill="#EDEDED"/>
<path d="M36.336 36.0789L33.3623 25C33.2833 24.6842 32.9939 24.4474 32.6517 24.4474H25.5202C26.8623 21.8947 27.9939 19.2895 27.9939 17.8421C27.9939 14.6316 25.3886 12 22.1517 12C18.9149 12 16.3096 14.6053 16.3096 17.8421C16.3096 19.2895 17.4412 21.8947 18.7833 24.4474H17.7307C17.3886 24.4474 17.0991 24.6842 17.0202 25L14.0202 36.0789C13.9675 36.2895 14.0202 36.5263 14.1517 36.7105C14.2833 36.8947 14.5202 37 14.7307 37H35.6254C35.8623 37 36.0728 36.8947 36.2044 36.7105C36.336 36.5263 36.3886 36.2895 36.336 36.0789ZM22.1517 13.4737C24.5465 13.4737 26.5202 15.4211 26.5202 17.8421C26.5202 19.1579 25.0465 22.5 22.5465 26.8158C22.4412 27.0263 22.2307 27.0526 22.1517 27.0526C22.0728 27.0526 21.8886 27.0263 21.757 26.8158C19.2833 22.5 17.7833 19.1579 17.7833 17.8421C17.7833 15.4211 19.757 13.4737 22.1517 13.4737ZM18.2833 25.9211H19.5728C19.8886 26.4737 20.1781 27.0263 20.4939 27.5263C20.836 28.1316 21.4675 28.5 22.1517 28.5C22.836 28.5 23.4675 28.1316 23.8096 27.5263C24.0991 27 24.4149 26.4737 24.7307 25.9211H26.7044L24.7044 30.9211L16.8623 31.2632L18.2833 25.9211ZM16.4412 32.7368L25.2307 32.3684C25.5202 32.3684 25.7833 32.1842 25.8886 31.8947L26.4675 30.4474L28.6517 31.6842L29.2833 35.5H15.7044L16.4412 32.7368ZM30.7833 35.5263L30.0465 31.1316C30.0202 30.9211 29.8886 30.7105 29.6781 30.6053L27.0202 29.0789L28.2833 25.9211H32.0728L34.6517 35.5263H30.7833Z" fill="#0074B5"/>
<path d="M24.9636 17.8431C24.9636 16.2905 23.7005 15.0273 22.1478 15.0273C20.5952 15.0273 19.332 16.2905 19.332 17.8431C19.332 19.3958 20.5952 20.6589 22.1478 20.6589C23.7005 20.6589 24.9636 19.3958 24.9636 17.8431ZM20.8057 17.8431C20.8057 17.1063 21.411 16.501 22.1478 16.501C22.8847 16.501 23.4899 17.1063 23.4899 17.8431C23.4899 18.58 22.8847 19.1852 22.1478 19.1852C21.411 19.1589 20.8057 18.58 20.8057 17.8431Z" fill="#0074B5"/>
</svg>
